<svg baseProfile="basic" width="174" height="112" xmlns="http://www.w3.org/2000/svg"><g overflow="visible"><path fill="#D1D3D3" d="M31.8 11.4q.95 1.35 2.6 1.6 1.65.25 3-.75 1.35-.95 1.6-2.6.25-1.65-.75-3-.95-1.35-2.6-1.6-1.65-.25-3 .75-1.35.95-1.6 2.6-.25 1.65.75 3zM170.95 45.8q.35-2.05-.9-3.75-1.25-1.65-3.25-1.95-2.05-.35-3.75.9-1.65 1.25-1.95 3.3-.35 2 .9 3.7 1.25 1.65 3.3 1.95 2 .35 3.7-.9 1.65-1.25 1.95-3.25zM3.6 78.8q.75 1 1.95 1.2 1.25.15 2.25-.55 1-.75 1.2-1.95.15-1.25-.55-2.25-.75-1-1.95-1.2-1.25-.15-2.25.55-1 .75-1.2 1.95-.15 1.25.55 2.25z"/><path fill="#D1D2D4" d="M36.05 107q0 1.7 14.65 2.85Q65.25 111 86.05 111t35.35-1.15q14.65-1.15 14.65-2.85 0-1.65-14.65-2.8-14.65-1.2-35.35-1.2-20.7 0-35.35 1.2-14.65 1.15-14.65 2.8z"/><path fill="#FFF" d="M113.85 12.05Q102.15 3 87.3 3 75.25 3 65 9.15q-10 6-15.6 16.1-12.75.7-21.55 9.85-8.8 9.25-8.8 22 0 13.25 9.4 22.55Q37.85 89 51.15 89q9.1 0 16.65-4.6Q76.9 89 87.3 89q12.35 0 22.8-6.45Q117.65 89 127.75 89q11.3 0 19.3-7.9 8-7.95 8-19.2 0-10.85-7.6-18.7-7.55-7.8-18.4-8.3-3.7-13.9-15.2-22.85z"/><path fill="#383F4E" d="M113.85 12.05Q102.15 3 87.3 3 75.25 3 65 9.15q-10 6-15.6 16.1-12.75.7-21.55 9.85-8.8 9.25-8.8 22 0 13.25 9.4 22.55Q37.85 89 51.15 89q9.1 0 16.65-4.6Q76.9 89 87.3 89q12.35 0 22.8-6.45Q117.65 89 127.75 89q11.3 0 19.3-7.9 8-7.95 8-19.2 0-10.85-7.6-18.7-7.55-7.8-18.4-8.3-3.7-13.9-15.2-22.85m-26.55-7q14 0 25.15 8.5 11.1 8.5 14.65 21.85.4 1.45 1.9 1.55 10.05.45 17.05 7.7Q153 51.9 153 61.9q0 10.4-7.4 17.75T127.75 87q-9.25 0-16.35-6-1.1-.95-2.35-.2Q99 87 87.3 87q-9.85 0-18.6-4.45-1-.45-1.95.1Q59.45 87 51.15 87q-12.5 0-21.3-8.75t-8.8-21.15q0-11.9 8.25-20.5 8.25-8.65 20.2-9.3 1.1-.1 1.65-1.05 5.45-9.75 15.1-15.45 9.7-5.75 21.05-5.75z"/><g transform="translate(110.9 70.6)"><animateTransform attributeName="transform" additive="replace" type="translate" dur="4.083s" keyTimes="0;1" values="0,0;0,0" fill="freeze"/><animateTransform attributeName="transform" additive="sum" type="translate" repeatCount="indefinite" dur="4.083s" keyTimes="0;.00999;.01;.01999;.02;.03099;.031;.04099;.041;.05099;.051;.06099;.061;.07099;.071;.08199;.082;.09199;.092;.10199;.102;.11199;.112;.12199;.122;.13299;.133;.14099;.142;.14299;.143;1" values="110.95,71.4;110.95,71.4;110.948,71.401;110.948,71.401;110.948,71.399;110.948,71.399;110.956,71.345;110.956,71.345;110.957,71.337;110.957,71.337;110.959,71.433;110.959,71.433;110.943,71.407;110.943,71.407;110.947,71.39;110.947,71.39;110.882,71.437;110.882,71.437;110.995,71.421;110.995,71.421;110.959,71.416;110.959,71.416;110.933,71.423;110.933,71.423;110.905,71.403;110.905,71.403;110.923,71.406;110.923,71.406;110.931,71.322;110.919,71.391;0;0" calcMode="discrete"/><animateTransform attributeName="transform" additive="sum" type="translate" repeatCount="indefinite" dur="4.083s" keyTimes="0;.14299;.143;.15299;.153;.16299;.163;.17299;.173;.18399;.184;.19399;.194;.20399;.204;.21399;.214;.22499;.225;.23499;.235;.24499;.245;.25499;.255;.26499;.265;.27399;.275;.27599;.276;1" values="0;0;110.931,71.322;110.931,71.322;110.919,71.391;110.919,71.391;110.989,71.399;110.989,71.399;110.966,71.377;110.966,71.377;110.981,71.389;110.981,71.389;110.977,71.441;110.977,71.441;110.909,71.413;110.909,71.413;110.919,71.366;110.919,71.366;110.973,71.407;110.973,71.407;110.957,71.413;110.957,71.413;110.95,71.361;110.95,71.361;110.951,71.362;110.951,71.362;110.95,71.412;110.95,71.412;111.011,71.378;110.95,71.407;0;0" calcMode="discrete"/><animateTransform attributeName="transform" additive="sum" type="translate" repeatCount="indefinite" dur="4.083s" keyTimes="0;.27599;.276;.28599;.286;.29599;.296;.30599;.306;.31599;.316;.32699;.327;.33699;.337;.34699;.347;.35699;.357;.36699;.367;.37799;.378;.38799;.388;.39799;.398;.40599;.407;.40799;.408;1" values="0;0;111.011,71.378;111.011,71.378;110.95,71.407;110.95,71.407;110.986,71.375;110.986,71.375;110.967,71.471;110.967,71.471;110.951,71.429;110.951,71.429;110.971,71.433;110.971,71.433;110.965,71.434;110.965,71.434;110.917,71.451;110.917,71.451;110.918,71.395;110.918,71.395;110.959,71.384;110.959,71.384;110.906,71.374;110.906,71.374;110.922,71.442;110.922,71.442;110.977,71.419;110.977,71.419;110.94,71.396;110.957,71.412;0;0" calcMode="discrete"/><animateTransform attributeName="transform" additive="sum" type="translate" repeatCount="indefinite" dur="4.083s" keyTimes="0;.40799;.408;.41799;.418;.42899;.429;.43899;.439;.44899;.449;.45899;.459;.46899;.469;.47999;.48;.48999;.49;.49999;.5;.50999;.51;.51999;.52;.53099;.531;.53899;.54;.54099;.541;1" values="0;0;110.94,71.396;110.94,71.396;110.957,71.412;110.957,71.412;110.934,71.362;110.934,71.362;110.99,71.398;110.99,71.398;110.961,71.401;110.961,71.401;110.975,71.382;110.975,71.382;110.964,71.37;110.964,71.37;110.973,71.404;110.973,71.404;110.926,71.402;110.926,71.402;110.975,71.399;110.975,71.399;110.927,71.395;110.927,71.395;110.929,71.403;110.929,71.403;110.906,71.457;110.906,71.457;110.958,71.325;110.933,71.417;0;0" calcMode="discrete"/><animateTransform attributeName="transform" additive="sum" type="translate" repeatCount="indefinite" dur="4.083s" keyTimes="0;.54099;.541;.55099;.551;.56099;.561;.57099;.571;.58199;.582;.59199;.592;.60199;.602;.61199;.612;.62199;.622;.63299;.633;.64299;.643;.65299;.653;.66299;.663;.67199;.673;.67399;.674;1" values="0;0;110.958,71.325;110.958,71.325;110.933,71.417;110.933,71.417;110.93,71.401;110.93,71.401;110.934,71.398;110.934,71.398;110.959,71.376;110.959,71.376;110.942,71.461;110.942,71.461;110.923,71.416;110.923,71.416;110.92,71.416;110.92,71.416;110.979,71.379;110.979,71.379;111.012,71.389;111.012,71.389;110.965,71.39;110.965,71.39;110.971,71.339;110.971,71.339;110.969,71.398;110.969,71.398;110.952,71.417;110.929,71.432;0;0" calcMode="discrete"/><animateTransform attributeName="transform" additive="sum" type="translate" repeatCount="indefinite" dur="4.083s" keyTimes="0;.67399;.674;.68399;.684;.69399;.694;.70399;.704;.71399;.714;.72499;.725;.73499;.735;.74499;.745;.75499;.755;.76499;.765;.77599;.776;.78599;.786;.79599;.796;.80399;.805;.80599;.806;1" values="0;0;110.952,71.417;110.952,71.417;110.929,71.432;110.929,71.432;110.946,71.412;110.946,71.412;110.877,71.422;110.877,71.422;110.929,71.42;110.929,71.42;110.934,71.363;110.934,71.363;110.946,71.412;110.946,71.412;110.951,71.411;110.951,71.411;110.955,71.363;110.955,71.363;110.941,71.408;110.941,71.408;110.942,71.417;110.942,71.417;110.919,71.417;110.919,71.417;110.984,71.386;110.984,71.386;110.969,71.39;110.957,71.432;0;0" calcMode="discrete"/><animateTransform attributeName="transform" additive="sum" type="translate" repeatCount="indefinite" dur="4.083s" keyTimes="0;.80599;.806;.81599;.816;.82699;.827;.83699;.837;.84699;.847;.85699;.857;.86699;.867;.87799;.878;.88799;.888;.89799;.898;.90799;.908;.91799;.918;.92899;.929;.93699;.938;.93899;.939;1" values="0;0;110.969,71.39;110.969,71.39;110.957,71.432;110.957,71.432;110.919,71.387;110.919,71.387;110.978,71.437;110.978,71.437;110.93,71.391;110.93,71.391;110.977,71.395;110.977,71.395;110.961,71.397;110.961,71.397;110.98,71.426;110.98,71.426;110.981,71.436;110.981,71.436;110.972,71.412;110.972,71.412;110.918,71.437;110.918,71.437;110.986,71.436;110.986,71.436;110.903,71.389;110.903,71.389;110.951,71.391;110.965,71.408;0;0" calcMode="discrete"/><animateTransform attributeName="transform" additive="sum" type="translate" repeatCount="indefinite" dur="4.083s" keyTimes="0;.93899;.939;.94899;.949;.95899;.959;.96899;.969;.97999;.98;.98999;.99;1" values="0;0;110.951,71.391;110.951,71.391;110.965,71.408;110.965,71.408;110.952,71.375;110.952,71.375;110.957,71.436;110.957,71.436;110.946,71.395;110.946,71.395;110.95,71.4;110.95,71.4" calcMode="discrete"/><animateTransform attributeName="transform" additive="sum" type="rotate" repeatCount="indefinite" dur="4.083s" keyTimes="0;.00999;.01;.01999;.02;.03099;.031;.04099;.041;.05099;.051;.06099;.061;.07099;.071;.08199;.082;.09199;.092;.10199;.102;.11199;.112;.12199;.122;.13299;.133;.14099;.142;.14299;.143;1" values="0,0,0;0,0,0;3.555,0,0;3.555,0,0;7.295,0,0;7.295,0,0;11.041,0,0;11.041,0,0;14.787,0,0;14.787,0,0;18.533,0,0;18.533,0,0;22.282,0,0;22.282,0,0;25.842,0,0;25.842,0,0;29.594,0,0;29.594,0,0;33.345,0,0;33.345,0,0;37.096,0,0;37.096,0,0;40.849,0,0;40.849,0,0;44.603,0,0;44.603,0,0;48.166,0,0;48.166,0,0;51.919,0,0;55.67,0,0;0;0" calcMode="discrete"/><animateTransform attributeName="transform" additive="sum" type="rotate" repeatCount="indefinite" dur="4.083s" keyTimes="0;.14299;.143;.15299;.153;.16299;.163;.17299;.173;.18399;.184;.19399;.194;.20399;.204;.21399;.214;.22499;.225;.23499;.235;.24499;.245;.25499;.255;.26499;.265;.27399;.275;.27599;.276;1" values="0;0;51.919,0,0;51.919,0,0;55.67,0,0;55.67,0,0;59.422,0,0;59.422,0,0;63.173,0,0;63.173,0,0;66.922,0,0;66.922,0,0;70.671,0,0;70.671,0,0;74.231,0,0;74.231,0,0;77.977,0,0;77.977,0,0;81.721,0,0;81.721,0,0;85.463,0,0;85.463,0,0;89.205,0,0;89.205,0,0;92.759,0,0;92.759,0,0;96.314,0,0;96.314,0,0;100.057,0,0;103.803,0,0;0;0" calcMode="discrete"/><animateTransform attributeName="transform" additive="sum" type="rotate" repeatCount="indefinite" dur="4.083s" keyTimes="0;.27599;.276;.28599;.286;.29599;.296;.30599;.306;.31599;.316;.32699;.327;.33699;.337;.34699;.347;.35699;.357;.36699;.367;.37799;.378;.38799;.388;.39799;.398;.40599;.407;.40799;.408;1" values="0;0;100.057,0,0;100.057,0,0;103.803,0,0;103.803,0,0;107.549,0,0;107.549,0,0;111.297,0,0;111.297,0,0;115.045,0,0;115.045,0,0;118.796,0,0;118.796,0,0;122.36,0,0;122.36,0,0;126.111,0,0;126.111,0,0;129.865,0,0;129.865,0,0;133.618,0,0;133.618,0,0;137.368,0,0;137.368,0,0;141.122,0,0;141.122,0,0;144.686,0,0;144.686,0,0;148.437,0,0;152.188,0,0;0;0" calcMode="discrete"/><animateTransform attributeName="transform" additive="sum" type="rotate" repeatCount="indefinite" dur="4.083s" keyTimes="0;.40799;.408;.41799;.418;.42899;.429;.43899;.439;.44899;.449;.45899;.459;.46899;.469;.47999;.48;.48999;.49;.49999;.5;.50999;.51;.51999;.52;.53099;.531;.53899;.54;.54099;.541;1" values="0;0;148.437,0,0;148.437,0,0;152.188,0,0;152.188,0,0;155.937,0,0;155.937,0,0;159.687,0,0;159.687,0,0;163.435,0,0;163.435,0,0;167.18,0,0;167.18,0,0;170.738,0,0;170.738,0,0;174.482,0,0;174.482,0,0;178.223,0,0;178.223,0,0;-178.223,0,0;-178.223,0,0;-174.482,0,0;-174.482,0,0;-170.738,0,0;-170.738,0,0;-167.18,0,0;-167.18,0,0;-163.435,0,0;-159.687,0,0;0;0" calcMode="discrete"/><animateTransform attributeName="transform" additive="sum" type="rotate" repeatCount="indefinite" dur="4.083s" keyTimes="0;.54099;.541;.55099;.551;.56099;.561;.57099;.571;.58199;.582;.59199;.592;.60199;.602;.61199;.612;.62199;.622;.63299;.633;.64299;.643;.65299;.653;.66299;.663;.67199;.673;.67399;.674;1" values="0;0;-163.435,0,0;-163.435,0,0;-159.687,0,0;-159.687,0,0;-155.937,0,0;-155.937,0,0;-152.188,0,0;-152.188,0,0;-148.437,0,0;-148.437,0,0;-144.686,0,0;-144.686,0,0;-141.122,0,0;-141.122,0,0;-137.368,0,0;-137.368,0,0;-133.618,0,0;-133.618,0,0;-129.865,0,0;-129.865,0,0;-126.111,0,0;-126.111,0,0;-122.36,0,0;-122.36,0,0;-118.796,0,0;-118.796,0,0;-115.045,0,0;-111.297,0,0;0;0" calcMode="discrete"/><animateTransform attributeName="transform" additive="sum" type="rotate" repeatCount="indefinite" dur="4.083s" keyTimes="0;.67399;.674;.68399;.684;.69399;.694;.70399;.704;.71399;.714;.72499;.725;.73499;.735;.74499;.745;.75499;.755;.76499;.765;.77599;.776;.78599;.786;.79599;.796;.80399;.805;.80599;.806;1" values="0;0;-115.045,0,0;-115.045,0,0;-111.297,0,0;-111.297,0,0;-107.549,0,0;-107.549,0,0;-103.803,0,0;-103.803,0,0;-100.057,0,0;-100.057,0,0;-96.314,0,0;-96.314,0,0;-92.759,0,0;-92.759,0,0;-89.205,0,0;-89.205,0,0;-85.463,0,0;-85.463,0,0;-81.721,0,0;-81.721,0,0;-77.977,0,0;-77.977,0,0;-74.231,0,0;-74.231,0,0;-70.671,0,0;-70.671,0,0;-66.922,0,0;-63.173,0,0;0;0" calcMode="discrete"/><animateTransform attributeName="transform" additive="sum" type="rotate" repeatCount="indefinite" dur="4.083s" keyTimes="0;.80599;.806;.81599;.816;.82699;.827;.83699;.837;.84699;.847;.85699;.857;.86699;.867;.87799;.878;.88799;.888;.89799;.898;.90799;.908;.91799;.918;.92899;.929;.93699;.938;.93899;.939;1" values="0;0;-66.922,0,0;-66.922,0,0;-63.173,0,0;-63.173,0,0;-59.422,0,0;-59.422,0,0;-55.67,0,0;-55.67,0,0;-51.919,0,0;-51.919,0,0;-48.166,0,0;-48.166,0,0;-44.603,0,0;-44.603,0,0;-40.849,0,0;-40.849,0,0;-37.096,0,0;-37.096,0,0;-33.345,0,0;-33.345,0,0;-29.594,0,0;-29.594,0,0;-25.842,0,0;-25.842,0,0;-22.282,0,0;-22.282,0,0;-18.533,0,0;-14.787,0,0;0;0" calcMode="discrete"/><animateTransform attributeName="transform" additive="sum" type="rotate" repeatCount="indefinite" dur="4.083s" keyTimes="0;.93899;.939;.94899;.949;.95899;.959;.96899;.969;.97999;.98;.98999;.99;1" values="0;0;-18.533,0,0;-18.533,0,0;-14.787,0,0;-14.787,0,0;-11.041,0,0;-11.041,0,0;-7.295,0,0;-7.295,0,0;-3.555,0,0;-3.555,0,0;0,0,0;0,0,0" calcMode="discrete"/><animateTransform attributeName="transform" additive="sum" type="scale" repeatCount="indefinite" dur="4.083s" keyTimes="0;.01999;.02;.04099;.041;.07099;.071;.14199;.14299;.143;1" values="1,1;1,1;1,.999;1,.999;.998,.998;.998,.998;.997,.997;.997,.997;.997,.997;1;1" calcMode="discrete"/><animateTransform attributeName="transform" additive="sum" type="scale" repeatCount="indefinite" dur="4.083s" keyTimes="0;.14299;.143;.18399;.184;.21399;.214;.24499;.245;.26499;.265;.27499;.27599;.276;1" values="1;1;.997,.997;.997,.997;.998,.998;.998,.998;1,.999;1,.999;1,1;1,1;1,.999;1,.999;.998,.998;1;1" calcMode="discrete"/><animateTransform attributeName="transform" additive="sum" type="scale" repeatCount="indefinite" dur="4.083s" keyTimes="0;.27599;.276;.28599;.286;.31599;.316;.40699;.40799;.408;1" values="1;1;1,.999;1,.999;.998,.998;.998,.998;.997,.997;.997,.997;.997,.997;1;1" calcMode="discrete"/><animateTransform attributeName="transform" additive="sum" type="scale" repeatCount="indefinite" dur="4.083s" keyTimes="0;.40799;.408;.42899;.429;.45899;.459;.48999;.49;.50999;.51;.53899;.54;.54099;.541;1" values="1;1;.997,.997;.997,.997;.998,.998;.998,.998;1,.999;1,.999;1,1;1,1;1,.999;1,.999;.998,.998;.998,.998;1;1" calcMode="discrete"/><animateTransform attributeName="transform" additive="sum" type="scale" repeatCount="indefinite" dur="4.083s" keyTimes="0;.54099;.541;.57099;.571;.67299;.67399;.674;1" values="1;1;.998,.998;.998,.998;.997,.997;.997,.997;.998,.998;1;1" calcMode="discrete"/><animateTransform attributeName="transform" additive="sum" type="scale" repeatCount="indefinite" dur="4.083s" keyTimes="0;.67399;.674;.68399;.684;.71399;.714;.73499;.735;.75499;.755;.78599;.786;.80499;.80599;.806;1" values="1;1;.997,.997;.997,.997;.998,.998;.998,.998;1,.999;1,.999;1,1;1,1;1,.999;1,.999;.998,.998;.998,.998;.997,.997;1;1" calcMode="discrete"/><animateTransform attributeName="transform" additive="sum" type="scale" repeatCount="indefinite" dur="4.083s" keyTimes="0;.80599;.806;.81599;.816;.92899;.929;.93799;.93899;.939;1" values="1;1;.998,.998;.998,.998;.997,.997;.997,.997;.998,.998;.998,.998;.998,.998;1;1" calcMode="discrete"/><animateTransform attributeName="transform" additive="sum" type="scale" repeatCount="indefinite" dur="4.083s" keyTimes="0;.93899;.939;.95899;.959;.97999;.98;1" values="1;1;.998,.998;.998,.998;1,.999;1,.999;1,1;1,1" calcMode="discrete"/><animateTransform attributeName="transform" additive="sum" type="translate" repeatCount="indefinite" dur="4.083s" keyTimes="0;.00999;.01;.01999;.02;.03099;.031;.05099;.051;.06099;.061;.08199;.082;.09199;.092;.10199;.102;.11199;.112;.12199;.122;.13299;.133;.14099;.142;.14299;.143;1" values="-.05,-.8;-.05,-.8;-.05,-.85;-.05,-.85;-.05,-.8;-.05,-.8;-.05,-.75;-.05,-.75;-.1,-.9;-.1,-.9;-.05,-.8;-.05,-.8;0,-.85;0,-.85;-.1,-.8;-.1,-.8;-.05,-.8;-.05,-.8;-.05,-.85;-.05,-.85;0,-.85;0,-.85;-.1,-.8;-.1,-.8;.05,-.75;-.05,-.8;0;0" calcMode="discrete"/><animateTransform attributeName="transform" additive="sum" type="translate" repeatCount="indefinite" dur="4.083s" keyTimes="0;.14299;.143;.15299;.153;.17299;.173;.18399;.184;.19399;.194;.20399;.204;.21399;.214;.22499;.225;.23499;.235;.24499;.245;.26499;.265;.27399;.275;.27599;.276;1" values="0;0;.05,-.75;.05,-.75;-.05,-.8;-.05,-.8;-.05,-.85;-.05,-.85;-.05,-.75;-.05,-.75;-.1,-.75;-.1,-.75;-.1,-.8;-.1,-.8;0,-.8;0,-.8;-.1,-.75;-.1,-.75;-.05,-.8;-.05,-.8;0,-.8;0,-.8;-.05,-.8;-.05,-.8;0,-.7;-.1,-.8;0;0" calcMode="discrete"/><animateTransform attributeName="transform" additive="sum" type="translate" repeatCount="indefinite" dur="4.083s" keyTimes="0;.27599;.276;.28599;.286;.29599;.296;.30599;.306;.31599;.316;.33699;.337;.34699;.347;.35699;.357;.36699;.367;.37799;.378;.38799;.388;.39799;.398;.40599;.407;.40799;.408;1" values="0;0;0,-.7;0,-.7;-.1,-.8;-.1,-.8;0,-.75;0,-.75;-.1,-.75;-.1,-.75;-.05,-.75;-.05,-.75;-.1,-.75;-.1,-.75;-.15,-.8;-.15,-.8;-.05,-.85;-.05,-.85;0,-.75;0,-.75;-.05,-.9;-.05,-.9;-.1,-.8;-.1,-.8;-.05,-.75;-.05,-.75;-.05,-.8;-.05,-.75;0;0" calcMode="discrete"/><animateTransform attributeName="transform" additive="sum" type="translate" repeatCount="indefinite" dur="4.083s" keyTimes="0;.40799;.408;.41799;.418;.42899;.429;.43899;.439;.44899;.449;.45899;.459;.46899;.469;.47999;.48;.48999;.49;.50999;.51;.51999;.52;.53099;.531;.53899;.54;.54099;.541;1" values="0;0;-.05,-.8;-.05,-.8;-.05,-.75;-.05,-.75;-.1,-.8;-.1,-.8;0,-.75;0,-.75;-.05,-.85;-.05,-.85;-.05,-.8;-.05,-.8;-.05,-.85;-.05,-.85;0,-.8;0,-.8;-.05,-.8;-.05,-.8;-.1,-.8;-.1,-.8;-.05,-.8;-.05,-.8;-.05,-.7;-.05,-.7;-.05,-.9;-.1,-.8;0;0" calcMode="discrete"/><animateTransform attributeName="transform" additive="sum" type="translate" repeatCount="indefinite" dur="4.083s" keyTimes="0;.54099;.541;.55099;.551;.56099;.561;.57099;.571;.58199;.582;.59199;.592;.60199;.602;.61199;.612;.62199;.622;.63299;.633;.64299;.643;.65299;.653;.66299;.663;.67199;.673;.67399;.674;1" values="0;0;-.05,-.9;-.05,-.9;-.1,-.8;-.1,-.8;-.05,-.8;-.05,-.8;-.1,-.8;-.1,-.8;-.1,-.85;-.1,-.85;-.05,-.75;-.05,-.75;-.1,-.8;-.1,-.8;-.05,-.75;-.05,-.75;-.05,-.85;-.05,-.85;0,-.8;0,-.8;-.05,-.8;-.05,-.8;-.1,-.8;-.1,-.8;-.05,-.85;-.05,-.85;-.05,-.8;-.05,-.75;0;0" calcMode="discrete"/><animateTransform attributeName="transform" additive="sum" type="translate" repeatCount="indefinite" dur="4.083s" keyTimes="0;.67399;.674;.68399;.684;.69399;.694;.70399;.704;.71399;.714;.72499;.725;.73499;.735;.75499;.755;.76499;.765;.77599;.776;.78599;.786;.79599;.796;.80499;.80599;.806;1" values="0;0;-.05,-.8;-.05,-.8;-.05,-.75;-.05,-.75;-.05,-.8;-.05,-.8;0,-.75;0,-.75;-.05,-.75;-.05,-.75;-.1,-.8;-.1,-.8;-.05,-.8;-.05,-.8;-.1,-.8;-.1,-.8;0,-.75;0,-.75;-.05,-.8;-.05,-.8;0,-.8;0,-.8;-.1,-.85;-.1,-.85;0,-.85;0;0" calcMode="discrete"/><animateTransform attributeName="transform" additive="sum" type="translate" repeatCount="indefinite" dur="4.083s" keyTimes="0;.80599;.806;.81599;.816;.82699;.827;.83699;.837;.84699;.847;.85699;.857;.86699;.867;.87799;.878;.88799;.888;.89799;.898;.90799;.908;.91799;.918;.92899;.929;.93699;.938;.93899;.939;1" values="0;0;-.1,-.85;-.1,-.85;0,-.85;0,-.85;-.05,-.75;-.05,-.75;-.05,-.85;-.05,-.85;-.05,-.7;-.05,-.7;-.05,-.8;-.05,-.8;-.05,-.75;-.05,-.75;-.1,-.85;-.1,-.85;-.05,-.9;-.05,-.9;-.1,-.8;-.1,-.8;0,-.85;0,-.85;-.05,-.9;-.05,-.9;0,-.8;0,-.8;-.05,-.8;-.05,-.85;0;0" calcMode="discrete"/><animateTransform attributeName="transform" additive="sum" type="translate" repeatCount="indefinite" dur="4.083s" keyTimes="0;.93899;.939;.94899;.949;.95899;.959;.96899;.969;.97999;.98;.98999;.99;1" values="0;0;-.05,-.8;-.05,-.8;-.05,-.85;-.05,-.85;-.05,-.8;-.05,-.8;-.05,-.85;-.05,-.85;-.05,-.75;-.05,-.75;-.05,-.8;-.05,-.8" calcMode="discrete"/><path fill="#E2F3F7" d="M12.75-13.8l-2.2 1.1q-2.9-1.25-6-3L4-17.75q-.2-.8-.9-1.35-.75-.6-1.55-.6h-2q-.8 0-1.55.6-.75.55-.95 1.35l-.5 2.05q-4.75 2.1-7 3l-2.25-1.1q-.7-.35-1.55-.1-.85.25-1.25.95l-.95 1.55q-.4.7-.45 1.75-.05 1.05.3 1.75l1.15 2.2q-1 3.65-1 6l-2.25 1.15q-.7.35-1.15 1.2-.45.85-.3 1.65l.35 2.05q.15.85.8 1.4.7.55 1.55.55h3q1.25 3.2 4 5l-.65 3.05q-.15.85.3 1.6.4.8 1.2 1.1l1.25.55q.8.3 1.75.1.95-.2 1.55-.8l1.6-1.6q1.3-.05 4 0 .75.05 3 0l1.55 1.6q.6.6 1.55.8.95.2 1.75-.1l1.25-.55q.8-.3 1.2-1.1.45-.75.3-1.6l-.6-3.05q3-1.8 4-5h2.95q.85 0 1.55-.55.65-.55.8-1.4l.35-2.05q.15-.85-.25-1.65-.45-.85-1.2-1.2L16.55.3q.2-2.7-1-6l1.75-2.35q.5-.65.5-1.6 0-.9-.5-1.6l-1.55-1.85q-.5-.65-1.35-.85-.9-.2-1.65.15M.55-7.7q3.2 0 5.55 2.55Q8.55-2.5 8.55 1.3q0 3.15-2.45 5.6Q3.65 9.3.55 9.3q-3.8 0-6.45-2.4-2.55-2.35-2.55-5.6 0-3.85 2.55-6.45Q-3.35-7.7.55-7.7z"/><path fill="#383F4E" d="M12.3-14.65l-1.75.9q-2.8-1.3-5.15-2.55L5-18q-.3-1.15-1.3-1.9-1-.8-2.15-.8h-2q-1.2 0-2.2.8-1 .75-1.3 1.9l-.35 1.6-6.15 2.65-1.8-.9q-1.1-.55-2.3-.2-1.2.35-1.8 1.4l-.95 1.55q-.55.95-.6 2.2-.05 1.25.45 2.25l.95 1.85q-.85 3.2-.9 5.3l-1.75.85q-1 .5-1.6 1.65-.6 1.15-.4 2.25l.35 2.05q.2 1.2 1.15 2 1 .8 2.2.8h2.3q1.25 2.7 3.6 4.5l-.5 2.35q-.2 1.2.35 2.3.6 1.1 1.7 1.55l1.3.5q1.05.4 2.3.15 1.25-.25 2.05-1.05L-3 18.3h1.65q1.1.05 1.9 0 .3.05 1.2 0h1.3l1.35 1.3q.8.8 2.05 1.05 1.25.25 2.3-.15l1.3-.5q1.1-.45 1.7-1.55.6-1.1.35-2.3l-.45-2.35q2.55-1.8 3.6-4.5h2.25q1.2 0 2.2-.8.95-.8 1.15-2l.35-2.05q.2-1.1-.4-2.25-.6-1.1-1.6-1.65l-1.65-.8q.1-2.45-.9-5.2l1.45-2q.7-.95.7-2.2 0-1.3-.75-2.2l-1.5-1.9q-.75-.9-1.95-1.2-1.25-.25-2.3.3m2.1.7q.85.2 1.35.85l1.55 1.85q.5.7.5 1.6 0 .95-.5 1.6L15.55-5.7q1.2 3.3 1 6l2.2 1.15q.75.35 1.2 1.2.4.8.25 1.65l-.35 2.05q-.15.85-.8 1.4-.7.55-1.55.55h-2.95q-1 3.2-4 5l.6 3.05q.15.85-.3 1.6-.4.8-1.2 1.1l-1.25.55q-.8.3-1.75.1-.95-.2-1.55-.8l-1.55-1.6q-2.25.05-3 0-2.7-.05-4 0l-1.6 1.6q-.6.6-1.55.8-.95.2-1.75-.1l-1.25-.55q-.8-.3-1.2-1.1-.45-.75-.3-1.6l.65-3.05q-2.75-1.8-4-5h-3q-.85 0-1.55-.55-.65-.55-.8-1.4l-.35-2.05q-.15-.8.3-1.65.45-.85 1.15-1.2L-16.45.3q0-2.35 1-6l-1.15-2.2q-.35-.7-.3-1.75.05-1.05.45-1.75l.95-1.55q.4-.7 1.25-.95t1.55.1l2.25 1.1q2.25-.9 7-3l.5-2.05q.2-.8.95-1.35.75-.6 1.55-.6h2q.8 0 1.55.6.7.55.9 1.35l.55 2.05q3.1 1.75 6 3l2.2-1.1q.75-.35 1.65-.15M6.9-5.8Q4.25-8.7.55-8.7q-4.3 0-7.15 2.85Q-9.45-3-9.45 1.3q0 3.75 2.9 6.35 2.9 2.65 7.1 2.65 3.55 0 6.25-2.7 2.75-2.75 2.75-6.3 0-4.15-2.65-7.1M.55-7.7q3.2 0 5.55 2.55Q8.55-2.5 8.55 1.3q0 3.15-2.45 5.6Q3.65 9.3.55 9.3q-3.8 0-6.45-2.4-2.55-2.35-2.55-5.6 0-3.85 2.55-6.45Q-3.35-7.7.55-7.7z"/></g></g></svg>