<?xml version="1.0" encoding="UTF-8"?>
<svg width="54px" height="49px" viewBox="0 0 54 49" version="1.1" xmlns="http://www.w3.org/2000/svg" xmlns:xlink="http://www.w3.org/1999/xlink">
    <!-- Generator: Sketch 53.2 (72643) - https://sketchapp.com -->
    <title>Shape</title>
    <desc>Created with Sketch.</desc>
    <g id="Home" stroke="none" stroke-width="1" fill="none" fill-rule="evenodd">
        <g id="Home_TabletLandscape-Copy" transform="translate(-343.000000, -709.000000)" fill="#FFFFFF" fill-rule="nonzero">
            <g id="Group-5" transform="translate(169.000000, 704.000000)">
                <path d="M224.563636,26.3589744 C225.494318,26.3589744 226.299716,26.6828926 226.97983,27.3307292 C227.659943,27.9785657 228,28.8063568 228,29.8141026 L228,50.5448718 C228,51.5526175 227.659943,52.3804087 226.97983,53.0282452 C226.299716,53.6760817 225.494318,54 224.563636,54 L214.254545,54 C213.252273,54 212.428977,53.6760817 211.784659,53.0282452 C211.140341,52.3804087 210.818182,51.5526175 210.818182,50.5448718 L210.818182,29.8141026 C210.818182,28.8063568 211.140341,27.9785657 211.784659,27.3307292 C212.428977,26.6828926 213.252273,26.3589744 214.254545,26.3589744 L224.563636,26.3589744 Z M224.318182,50.2307692 L224.318182,28.8717949 L214.5,28.8717949 L214.5,50.2307692 L224.318182,50.2307692 Z M199.3125,50.2307692 C199.734375,50.2307692 200.121094,50.4074519 200.472656,50.7608173 C200.824219,51.1141827 201,51.5657051 201,52.1153846 C201,52.5865385 200.824219,53.0184295 200.472656,53.4110577 C200.121094,53.8036859 199.734375,54 199.3125,54 L189.1875,54 C188.695312,54 188.291016,53.8036859 187.974609,53.4110577 C187.658203,53.0184295 187.5,52.5865385 187.5,52.1153846 C187.5,50.8589744 188.0625,50.2307692 189.1875,50.2307692 L199.3125,50.2307692 Z M190.936364,8.45512821 L190.936364,29.1858974 L204.681818,29.1858974 L204.681818,32.6410256 L190.936364,32.6410256 C189.934091,32.6410256 189.110795,32.3171074 188.466477,31.6692708 C187.822159,31.0214343 187.5,30.1936432 187.5,29.1858974 L187.5,8.45512821 C187.5,7.44738248 187.822159,6.61959135 188.466477,5.97175481 C189.110795,5.32391827 189.934091,5 190.936364,5 L218.427273,5 C219.357955,5 220.163352,5.32391827 220.843466,5.97175481 C221.52358,6.61959135 221.863636,7.44738248 221.863636,8.45512821 L221.863636,22.275641 L218.427273,22.275641 L218.427273,8.45512821 L190.936364,8.45512821 Z M184.309091,15.0512821 L184.309091,18.5413105 L177.436364,18.5413105 L177.436364,42.97151 L208.363636,42.97151 L208.363636,46.4615385 L177.436364,46.4615385 C176.434091,46.4615385 175.610795,46.1161711 174.966477,45.4254363 C174.322159,44.7347014 174,43.916726 174,42.97151 L174,18.5413105 C174,17.5233856 174.322159,16.6872329 174.966477,16.0328526 C175.610795,15.3784722 176.434091,15.0512821 177.436364,15.0512821 L184.309091,15.0512821 Z" id="Shape"></path>
            </g>
        </g>
    </g>
</svg>