<?xml version="1.0" encoding="UTF-8"?>
<svg width="63px" height="42px" viewBox="0 0 63 42" version="1.1" xmlns="http://www.w3.org/2000/svg" xmlns:xlink="http://www.w3.org/1999/xlink">
    <!-- Generator: Sketch 53.2 (72643) - https://sketchapp.com -->
    <title>Shape Copy</title>
    <desc>Created with Sketch.</desc>
    <g id="Home" stroke="none" stroke-width="1" fill="none" fill-rule="evenodd">
        <g id="Home_Desktop-Copy-3" transform="translate(-719.000000, -2382.000000)" fill="#354A5F" fill-rule="nonzero">
            <g id="Group-7" transform="translate(464.000000, 2173.000000)">
                <path d="M304,237 C311.77,237 318,230.7 318,223 C318,215.3 311.7,209 304,209 C296.3,209 290,215.3 290,223 C290,238.47 302.53,251 318,251 C318,251 308.83,247.57 304,237 Z M283,223 C283,215.3 276.7,209 269,209 C261.3,209 255,215.3 255,223 L255,223 C255,238.47 267.53,251 283,251 C283,251 273.83,247.57 269,237 C276.77,237 283,230.7 283,223 Z" id="Shape-Copy" transform="translate(286.500000, 230.000000) scale(-1, 1) translate(-286.500000, -230.000000) "></path>
            </g>
        </g>
    </g>
</svg>