<?xml version="1.0" encoding="UTF-8"?>
<svg width="46px" height="54px" viewBox="0 0 46 54" version="1.1" xmlns="http://www.w3.org/2000/svg" xmlns:xlink="http://www.w3.org/1999/xlink">
    <!-- Generator: Sketch 53.2 (72643) - https://sketchapp.com -->
    <title>Shape</title>
    <desc>Created with Sketch.</desc>
    <g id="Home" stroke="none" stroke-width="1" fill="none" fill-rule="evenodd">
        <g id="Home_TabletLandscape-Copy" transform="translate(-489.000000, -704.000000)" fill="#FFFFFF" fill-rule="nonzero">
            <g id="Group-5" transform="translate(169.000000, 704.000000)">
                <path d="M343.053066,11.4230769 L333.288889,5.7639379 L343.053066,0 L352.711111,5.7639379 L343.053066,11.4230769 Z M366,13.0068493 L366,24.3777661 L356.288889,30.1153846 L356.288889,18.7444679 L346.577778,13.0068493 L356.288889,7.26923077 L366,13.0068493 Z M320,29.0769231 L330.222222,34.8897749 L330.222222,46.7307692 L320,40.810272 L320,29.0769231 Z M343.053066,15.5769231 L352.711111,21.2360621 L352.711111,32.7639379 L343.053066,38.4230769 L333.288889,32.7639379 L333.288889,21.2360621 L343.053066,15.5769231 Z M339.422222,12.902529 L329.711111,18.7444679 L329.711111,30.1153846 L320,24.3777661 L320,13.0068493 L329.711111,7.26923077 L339.422222,12.902529 Z M355.777778,34.8897749 L366,29.0769231 L366,40.810272 L355.777778,46.7307692 L355.777778,34.8897749 Z M343.053066,42.266651 L352.711111,36.3461538 L352.711111,48.0795028 L343.053066,54 L333.288889,48.0795028 L333.288889,36.3461538 L343.053066,42.266651 Z" id="Shape"></path>
            </g>
        </g>
    </g>
</svg>