<?xml version="1.0" encoding="UTF-8"?>
<svg width="52px" height="54px" viewBox="0 0 52 54" version="1.1" xmlns="http://www.w3.org/2000/svg" xmlns:xlink="http://www.w3.org/1999/xlink">
    <!-- Generator: Sketch 53.2 (72643) - https://sketchapp.com -->
    <title>Path</title>
    <desc>Created with Sketch.</desc>
    <g id="Home" stroke="none" stroke-width="1" fill="none" fill-rule="evenodd">
        <g id="Home_TabletLandscape-Copy" transform="translate(-770.000000, -704.000000)" fill="#FFFFFF" fill-rule="nonzero">
            <g id="Group-5" transform="translate(169.000000, 704.000000)">
                <path d="M639.437936,31.4121584 C639.031799,31.6932515 638.930265,32.0094813 639.133333,32.3608477 L646.443794,52.8103737 C646.579172,53.1617401 646.494561,53.4779699 646.189958,53.759063 C645.885356,54.0401562 645.563831,54.0752928 645.225384,53.864473 L627.456904,40.7936419 C627.118457,40.5828221 626.813854,40.5828221 626.543096,40.7936419 L608.774616,53.864473 C608.436169,54.0752928 608.114644,54.0401562 607.810042,53.759063 C607.505439,53.4779699 607.420828,53.1617401 607.556206,52.8103737 L614.866667,32.3608477 C615.002046,31.939208 614.900511,31.6229782 614.562064,31.4121584 L601.362622,21.7144451 C601.024175,21.5036252 600.922641,21.2049637 601.05802,20.8184607 C601.193398,20.4319576 601.430311,20.2387061 601.768759,20.2387061 L618.623431,20.2387061 C618.961878,20.2387061 619.232636,20.0630229 619.435704,19.7116564 L626.238494,0.527049637 C626.373873,0.175683212 626.627708,0 627,0 C627.372292,0 627.626127,0.175683212 627.761506,0.527049637 L634.564296,19.7116564 C634.699675,20.0630229 634.970432,20.2387061 635.376569,20.2387061 L652.129707,20.2387061 C652.535844,20.2387061 652.806602,20.4319576 652.94198,20.8184607 C653.077359,21.2049637 652.975825,21.5036252 652.637378,21.7144451 L639.437936,31.4121584 Z" id="Path"></path>
            </g>
        </g>
    </g>
</svg>