<?xml version="1.0" encoding="UTF-8"?>
<svg width="84px" height="91px" viewBox="0 0 84 91" version="1.1" xmlns="http://www.w3.org/2000/svg" xmlns:xlink="http://www.w3.org/1999/xlink">
    <!-- Generator: Sketch 53.2 (72643) - https://sketchapp.com -->
    <title>Group 3</title>
    <desc>Created with Sketch.</desc>
    <g id="Get-Started" stroke="none" stroke-width="1" fill="none" fill-rule="evenodd">
        <g id="Get-Started---Tablet-Portrait---828-VP" transform="translate(-208.000000, -587.000000)" fill-rule="nonzero">
            <g id="Group-3" transform="translate(208.465132, 587.394868)">
                <path d="M2.43290924,25.2691705 L73.4069609,0.213785473 C75.0943076,-0.381884625 76.9450583,0.503094087 77.5407284,2.19044075 C77.6628052,2.53624588 77.7252889,2.90026639 77.7255164,3.26698681 L77.7613574,61.0386796 C77.7622048,62.4046689 76.9062433,63.6244563 75.6213938,64.0882332 L4.64769144,89.7067711 C2.96457964,90.3143041 1.10764517,89.4423751 0.500112209,87.7592633 C0.373004149,87.4071226 0.307888594,87.0356164 0.307656333,86.6612377 L0.271465984,28.326392 C0.270613347,26.9520355 1.13693691,25.7266769 2.43290924,25.2691705 Z" id="Rectangle" fill="#1E4452"></path>
                <path d="M21.2762878,54.5310825 L61.4598453,42.0119941 C63.1682569,41.4797426 64.9846731,42.4332088 65.5169245,44.1416204 C65.6084589,44.4354257 65.6576692,44.7407733 65.6630723,45.0484597 L66.069689,68.2036918 C66.0933538,69.5513115 65.2802572,70.7728293 64.027903,71.2710739 L24.2593007,87.092869 C22.5966502,87.7543485 20.7125707,86.942739 20.0510912,85.2800886 C19.911963,84.9303854 19.8348282,84.5591155 19.823147,84.182934 L19.0015752,57.7249953 C18.9564039,56.2702968 19.8867618,54.9639859 21.2762878,54.5310825 Z" id="Rectangle-Copy-5" fill="#297794"></path>
                <ellipse id="Oval-Copy" fill="#FFFFFF" opacity="0.223609561" cx="25.8091014" cy="71.955356" rx="1.33048228" ry="1.2876304"></ellipse>
                <path d="M65.4466156,51.8550724 L78.1939745,48.1308528 C79.9115748,47.6290453 81.7107604,48.6146401 82.2125679,50.3322404 C82.2962252,50.6185846 82.3399359,50.9151106 82.3424613,51.2134145 L82.56731,77.7724726 C82.5788801,79.1391199 81.7316451,80.3660639 80.4495289,80.8393891 L67.7104558,85.5423358 C66.0317931,86.162056 64.1685856,85.3036135 63.5488654,83.6249508 C63.4194317,83.2743483 63.3516331,82.9039951 63.3484692,82.5302769 L63.1153346,54.9924917 C63.1030625,53.5429195 64.0551597,52.2615948 65.4466156,51.8550724 Z" id="Rectangle-Copy-4" fill="#5DCCF5"></path>
                <ellipse id="Oval" fill="#FFFFFF" opacity="0.484909784" cx="73.8818072" cy="78.7051324" rx="1" ry="1"></ellipse>
            </g>
        </g>
    </g>
</svg>