<svg xmlns="http://www.w3.org/2000/svg" width="120" height="105" viewBox="0 0 120 105">
  <g fill="none" fill-rule="evenodd">
    <path fill="#1E4452" fill-rule="nonzero" d="M16.1571427,28.815056 L96.6439132,0.187141043 C98.3289472,-0.412199805 100.17806,0.475671942 100.774023,2.17025809 C100.896372,2.51815069 100.958999,2.88443495 100.959226,3.25344535 L100.999999,69.4711596 C101.000844,70.8425816 100.146751,72.0673793 98.8643384,72.5337683 L18.377964,101.805133 C16.697173,102.416405 14.8418824,101.541665 14.2340563,99.8513454 C14.1066665,99.497084 14.041402,99.1232699 14.0411701,98.7465554 L14.0000006,31.885391 C13.999151,30.5055528 14.863603,29.2751483 16.1571427,28.815056 Z"/>
    <path fill="#297794" fill-rule="nonzero" d="M41.0227038,59.238489 L84.4536101,40.2730292 C86.0928872,39.5571877 88.0057337,40.2974841 88.7260721,41.9265275 C88.9076566,42.3371804 89.0009545,42.7809883 88.9999926,43.2295386 L88.9189968,81.0026544 C88.9163481,82.2378841 88.2032752,83.3628706 87.083328,83.8987152 L43.6485274,104.680323 C42.0352138,105.452221 40.0976866,104.778284 39.3209392,103.175042 C39.1086831,102.736936 38.9989647,102.256769 39.0000074,101.770531 L39.0848975,62.1812676 C39.0876329,60.9056096 39.8474878,59.7516837 41.0227038,59.238489 Z"/>
    <circle cx="44.5" cy="82.5" r="1.5" fill="#FFFFFF" fill-rule="nonzero" opacity=".224"/>
    <path fill="#5DCCF5" fill-rule="nonzero" d="M89.5238929,57.8241946 L102.759463,53.1795532 C104.424784,52.5951567 106.244093,53.4842149 106.823002,55.1653204 C106.9444,55.5178485 107.004211,55.8889853 106.99977,56.2621796 L106.823002,87.0005686 C106.80786,88.2728386 106.052572,89.4170094 104.895221,89.9209265 L91.4566462,95.735665 C89.8377391,96.4405463 87.9593014,95.6871432 87.2610382,94.0528919 C87.0837112,93.6378666 86.9948513,93.1898272 87.0002304,92.7378756 L87.380003,60.8293896 C87.3961613,59.4717728 88.2534971,58.2700034 89.5238929,57.8241946 Z"/>
    <circle cx="98" cy="88" r="1" fill="#FFFFFF" fill-rule="nonzero" opacity=".485"/>
  </g>
</svg>
