<?xml version="1.0" encoding="UTF-8"?>
<svg width="93px" height="109px" viewBox="0 0 93 109" version="1.1" xmlns="http://www.w3.org/2000/svg" xmlns:xlink="http://www.w3.org/1999/xlink">
    <!-- Generator: Sketch 53 (72520) - https://sketchapp.com -->
    <title>Group 10</title>
    <desc>Created with Sketch.</desc>
    <g id="Get-Started" stroke="none" stroke-width="1" fill="none" fill-rule="evenodd">
        <g id="Get-Started---Desktop-984" transform="translate(-278.000000, -646.000000)" fill-rule="nonzero">
            <g id="Group-15" transform="translate(232.000000, 610.000000)">
                <g id="Group-10" transform="translate(16.000000, 24.000000)">
                    <g id="Group-9" fill="#1E4452">
                        <path d="M46.6206669,25.0309074 L131.357092,36.2202875 C133.131095,36.4545432 134.379307,38.0825584 134.145051,39.8565612 C134.096959,40.2207577 133.98728,40.5741233 133.820706,40.901545 L103.929481,99.6562932 C103.310409,100.873151 101.994964,101.571365 100.640206,101.402178 L15.6133219,90.7837293 C13.8377118,90.5619851 12.5780547,88.9428094 12.799799,87.1671994 C12.8462727,86.7950624 12.9570019,86.4338191 13.127054,86.0995616 L43.308738,26.7738823 C43.9316084,25.5495566 45.2588291,24.8510777 46.6206669,25.0309074 Z" id="Rectangle" transform="translate(73.473894, 63.215082) rotate(-27.000000) translate(-73.473894, -63.215082) "></path>
                    </g>
                    <g id="Group-8" transform="translate(35.000000, 45.000000)">
                        <path d="M32.9675002,17.2631472 L80.5683556,17.1572984 C82.3577538,17.1533194 83.8115733,18.6006875 83.8155523,20.3900857 C83.8167679,20.9367568 83.6796416,21.4748478 83.4169398,21.9542626 L63.4789246,58.3399276 C62.9325031,59.3371135 61.9033317,59.9748734 60.7671596,60.0203618 L12.2496588,61.962835 C10.4616886,62.0344192 8.95422198,60.6430134 8.88263783,58.8550432 C8.85918707,58.2693092 8.99508624,57.6881861 9.27585462,57.1735957 L30.1305153,18.9513062 C30.697094,17.9128842 31.7845696,17.2657776 32.9675002,17.2631472 Z" id="Rectangle-Copy-5" fill="#297794" transform="translate(46.347802, 39.561384) rotate(-27.000000) translate(-46.347802, -39.561384) "></path>
                        <circle id="Oval-Copy" fill="#FFFFFF" opacity="0.223609561" cx="25.5" cy="50.5" r="1.5"></circle>
                    </g>
                    <g id="Group-5" transform="translate(88.000000, 62.000000)">
                        <path d="M25.4666437,7.02441941 L39.555745,8.96220344 C41.3284593,9.20601866 42.5678768,10.8407388 42.3240616,12.613453 C42.2729335,12.9851915 42.1576187,13.3452231 41.9832598,13.6774919 L27.6005502,41.0860439 C27.0061369,42.2187933 25.8008715,42.8957519 24.5242555,42.8138991 L9.91000178,41.8768769 C8.12426599,41.7623809 6.76945849,40.2219387 6.88395452,38.4362029 C6.91303129,37.9827074 7.03717906,37.5404002 7.24833394,37.1380108 L22.1561959,8.72869704 C22.7904837,7.51996025 24.1143229,6.83842419 25.4666437,7.02441941 Z" id="Rectangle-Copy-4" fill="#5DCCF5" transform="translate(24.615935, 24.907324) rotate(-27.000000) translate(-24.615935, -24.907324) "></path>
                        <ellipse id="Oval" fill="#FFFFFF" opacity="0.484909784" cx="26" cy="38.22" rx="1" ry="1"></ellipse>
                    </g>
                </g>
            </g>
        </g>
    </g>
</svg>