<?xml version="1.0" encoding="UTF-8"?>
<svg width="50px" height="50px" viewBox="0 0 50 50" version="1.1" xmlns="http://www.w3.org/2000/svg" xmlns:xlink="http://www.w3.org/1999/xlink">
    <!-- Generator: Sketch 53.2 (72643) - https://sketchapp.com -->
    <title>iOS</title>
    <desc>Created with Sketch.</desc>
    <g id="Home" stroke="none" stroke-width="1" fill="none" fill-rule="evenodd">
        <g id="Home_Desktop-Copy-3" transform="translate(-188.000000, -1278.000000)" fill="#32363A" fill-rule="nonzero">
            <g id="Group-11-Copy-2" transform="translate(173.000000, 1278.000000)">
                <g id="world" transform="translate(15.000000, 0.000000)">
                    <path d="M24.6531246,0 C11.0592925,0 0,11.0592925 0,24.6531246 C0,38.2469567 11.0592925,49.3062492 24.6531246,49.3062492 C38.2469567,49.3062492 49.3062492,38.2469567 49.3062492,24.6531246 C49.3062492,11.0592925 38.2469567,0 24.6531246,0 Z M25.8161846,15.5073724 C29.0912663,15.4761379 32.2955734,15.0778268 35.2464549,14.3432476 C36.0617469,17.1150275 36.5528388,20.2231465 36.6503757,23.4900645 L25.8161846,23.4900645 L25.8161846,15.5073724 Z M25.8161846,13.1814653 L25.8161846,2.61276773 C29.3674789,3.2743007 32.5172675,6.92476455 34.5004466,12.1321273 C31.7872314,12.7910339 28.8396154,13.1512246 25.8161846,13.1814653 Z M23.4900645,2.61276773 L23.4900645,13.1334068 C20.4655689,12.9937742 17.5776534,12.5297286 14.9530307,11.7720785 C16.9429537,6.76057037 20.0226776,3.25868348 23.4900645,2.61276773 Z M23.4900645,15.45832 L23.4900645,23.4900645 L12.6558735,23.4900645 C12.7579536,20.071446 13.2938386,16.8294447 14.1771367,13.9617606 C17.0475184,14.8034599 20.1997915,15.3134345 23.4900645,15.45832 Z M10.3299664,23.4900645 L2.38503965,23.4900645 C2.63200533,18.7315561 4.36133313,14.3662476 7.13900498,10.8495243 C8.56883621,11.7590878 10.166837,12.5536514 11.9164671,13.2107832 C10.9814192,16.2882355 10.4282132,19.769465 10.3299664,23.4900645 Z M10.3299664,25.8161846 C10.4255867,29.4371177 10.9556507,32.8271991 11.8461895,35.8431052 C10.0393434,36.4722679 8.38668217,37.2480908 6.89920898,38.1362871 C4.2642931,34.675431 2.62469363,30.433073 2.38503965,25.8161846 L10.3299664,25.8161846 Z M12.6558735,25.8161846 L23.4900645,25.8161846 L23.4900645,33.8227285 C20.2051156,33.911321 17.0226017,34.3581876 14.1109764,35.1464334 C13.2639529,32.3291504 12.7555401,29.1543742 12.6558735,25.8161846 Z M23.4900645,36.1482097 L23.4900645,46.6934814 C19.9780265,46.0392602 16.86146,42.4580801 14.8747314,37.3426462 C17.5430825,36.6349714 20.4659239,36.2336787 23.4900645,36.1482097 Z M25.8161846,46.6934814 L25.8161846,36.1482097 C28.8403253,36.2336787 31.7631667,36.6349714 34.4315178,37.3426462 C32.4447892,42.4580801 29.3282227,46.0392602 25.8161846,46.6934814 Z M25.8161846,33.8227285 L25.8161846,25.8161846 L36.6503757,25.8161846 C36.5507091,29.1543742 36.0422964,32.3291504 35.1952729,35.1464334 C32.2836475,34.3581876 29.1011336,33.911321 25.8161846,33.8227285 Z M38.9762828,25.8161846 L46.9212095,25.8161846 C46.6815555,30.433073 45.0419561,34.675431 42.4070402,38.1362871 C40.919567,37.2480908 39.2669059,36.4722679 37.4600597,35.8431052 C38.3505985,32.8271991 38.8806625,29.4371177 38.9762828,25.8161846 Z M38.9762828,23.4900645 C38.8830761,19.9605635 38.3750893,16.6527566 37.5245164,13.6945633 C39.385242,13.0942926 41.0939124,12.3423215 42.6364719,11.4766283 C45.1375053,14.8806233 46.6885833,19.0086914 46.9212095,23.4900645 L38.9762828,23.4900645 Z M41.1409771,9.6516094 C39.8213185,10.3602071 38.3750182,10.9829099 36.8061223,11.4889801 C35.6165839,8.25862065 33.9962221,5.56854734 32.0690521,3.61908729 C35.5796704,4.86101454 38.6823233,6.95173987 41.1409771,9.6516094 Z M17.237268,3.61908729 C15.4040146,5.47363711 13.8403008,7.98751915 12.6688642,11.010808 C11.2207891,10.4620032 9.8876429,9.81523566 8.68546869,9.07930768 C11.0549623,6.65046871 13.9744672,4.77327387 17.237268,3.61908729 Z M8.4201883,39.9350406 C9.68185001,39.2121034 11.0726381,38.5774037 12.5819754,38.0492564 C13.7632792,41.1786715 15.3556721,43.7837018 17.237268,45.6871619 C13.8480384,44.4882532 10.8371015,42.5008856 8.4201883,39.9350406 Z M32.0690521,45.6871619 C33.9506481,43.7837727 35.5430409,41.1786715 36.7243447,38.0492564 C38.233682,38.5774038 39.6244701,39.2121034 40.8860609,39.9350406 C38.4692187,42.5008856 35.4582108,44.4882532 32.0690521,45.6871619 Z" id="Shape"></path>
                </g>
            </g>
        </g>
    </g>
</svg>