<?xml version="1.0" encoding="UTF-8"?>
<svg width="48px" height="39px" viewBox="0 0 48 39" version="1.1" xmlns="http://www.w3.org/2000/svg" xmlns:xlink="http://www.w3.org/1999/xlink">
    <!-- Generator: Sketch 53.2 (72643) - https://sketchapp.com -->
    <title>iOS</title>
    <desc>Created with Sketch.</desc>
    <g id="Home" stroke="none" stroke-width="1" fill="none" fill-rule="evenodd">
        <g id="Home_Desktop-Copy-3" transform="translate(-189.000000, -1824.000000)" fill="#32363A" fill-rule="nonzero">
            <g id="Group-11-Copy-3" transform="translate(173.000000, 1818.000000)">
                <g id="CUX" transform="translate(14.000000, 0.000000)">
                    <path d="M44.8503914,6.43124989 L23.2633517,6.43124989 C20.8066822,6.43124989 18.8080181,8.43709952 18.8080181,10.9030064 L18.8080181,18.1167041 L6.38632591,18.1167041 C4.04703996,18.1167041 2.14374996,20.0231814 2.14374996,22.3671074 L2.14374996,34.930088 C2.14374996,37.2776944 4.04703996,39.1868006 6.38632591,39.185749 L8.10463205,39.185749 L8.10463205,43.2789441 C8.10463205,44.4209377 8.86710093,45.0187492 9.6201372,45.0187492 C9.93665348,45.0187492 10.4140481,44.9156964 10.8888225,44.4335564 L16.1050529,39.2104607 C16.121822,39.2004709 16.1454035,39.1910068 16.1632206,39.1868006 L26.5296531,39.1868006 C28.868415,39.1868006 30.771705,37.2776944 30.771705,34.930088 L30.771705,28.8289401 L34.3718158,28.826837 C34.4048299,28.8326206 34.4776706,28.8594354 34.4755744,28.8573322 L40.0827338,34.4800205 C40.4736629,34.8743553 40.9342884,35.0820383 41.3854813,35.0820383 C41.5751815,35.0820383 41.7643576,35.0462853 41.9446252,34.9710988 C42.5546003,34.717673 42.9193277,34.094624 42.9193277,33.3033255 L42.9193277,28.8305175 L44.8498674,28.8305175 C47.3070609,28.8305175 49.3062491,26.8251936 49.3062491,24.3603383 L49.3062491,10.9030064 C49.3067731,8.43657374 47.308109,6.43124989 44.8503914,6.43124989 Z M46.8768293,24.3598125 C46.8768293,25.4813007 45.9681551,26.3935285 44.8498674,26.3935285 L42.5163458,26.3935285 C41.3991062,26.3935285 40.49148,27.3041789 40.49148,28.4240897 L40.49148,31.4457458 L36.1938806,27.136981 C35.7599807,26.6995323 35.0273818,26.3935285 34.4126904,26.3935285 L30.771705,26.3935285 L30.771705,22.3676332 C30.771705,20.0237072 28.868415,18.1172299 26.5296531,18.1172299 L21.2363898,18.1172299 L21.2363898,10.9030064 C21.2363898,9.7804667 22.145064,8.86823889 23.2633517,8.86823889 L44.8498674,8.86823889 C45.9681551,8.86823889 46.8768293,9.7804667 46.8768293,10.9030064 L46.8768293,24.3598125 Z" id="Shape"></path>
                </g>
            </g>
        </g>
    </g>
</svg>