<?xml version="1.0" encoding="UTF-8"?>
<svg width="40px" height="51px" viewBox="0 0 40 51" version="1.1" xmlns="http://www.w3.org/2000/svg" xmlns:xlink="http://www.w3.org/1999/xlink">
    <!-- Generator: Sketch 53.2 (72643) - https://sketchapp.com -->
    <title>iOS</title>
    <desc>Created with Sketch.</desc>
    <g id="Home" stroke="none" stroke-width="1" fill="none" fill-rule="evenodd">
        <g id="Home_Desktop-Copy-3" transform="translate(-192.000000, -1458.000000)" fill="#32363A">
            <g id="Group-11" transform="translate(176.000000, 1458.000000)">
                <g id="iOS" transform="translate(12.000000, 0.000000)">
                    <g id="noun_Apple_2301217" transform="translate(4.373178, 0.000000)">
                        <path d="M12.4947938,12.6519611 C16.0870471,12.4938115 18.4298209,14.5497552 20.7725948,14.5497552 C23.1153686,14.5497552 25.3019575,12.4938115 29.0503957,12.6519611 C32.3302791,12.6519611 35.9225323,13.9171572 38.421491,16.9219979 C34.8292378,18.6616426 32.1740941,22.4572309 32.1740941,26.8854172 C32.1740941,31.6299026 35.2977926,35.5836405 39.3586006,37.0069861 C37.6405664,42.0677705 34.8292378,46.8122559 30.9246147,49.3426481 C25.9266972,52.0311898 22.9591837,47.2867044 20.7725948,47.2867044 C18.4298209,47.2867044 15.6184923,52.0311898 10.6205748,49.3426481 C4.68554769,45.5470598 1.09329446,36.8488366 0.312369846,29.573959 C-1.09329446,17.0801474 6.24739692,12.6519611 12.4947938,12.6519611 Z M20.1478551,11.8612135 C19.9916701,4.42818637 23.8962932,0.948897079 30.6122449,0 C29.3627655,8.06562517 26.2390671,10.5960174 20.1478551,11.8612135 Z" id="Shape"></path>
                    </g>
                </g>
            </g>
        </g>
    </g>
</svg>