<?xml version="1.0" encoding="UTF-8"?>
<svg width="48px" height="24px" viewBox="0 0 48 24" version="1.1" xmlns="http://www.w3.org/2000/svg" xmlns:xlink="http://www.w3.org/1999/xlink">
    <!-- Generator: Sketch 53.2 (72643) - https://sketchapp.com -->
    <title>logo-sap</title>
    <desc>Created with Sketch.</desc>
    <g id="Symbols" stroke="none" stroke-width="1" fill="none" fill-rule="evenodd">
        <g id="Article/TabletPortrait528" transform="translate(-48.000000, -64.000000)" fill="#32363A">
            <path d="M48,88 L48,64 L96,64 L72.2571826,88 L48,88 Z M76.7636646,75.6306838 L75.7219159,75.6306838 L75.7219159,71.7812272 L76.7636646,71.7812272 C78.151988,71.7812272 79.2568029,72.2467469 79.2568029,73.6838053 C79.2568029,75.1648716 78.151988,75.6306838 76.7636646,75.6306838 Z M65.5662394,78.3757006 C65.0158569,78.3757006 64.4978755,78.2768653 64.0519283,78.105512 L65.5504728,73.3307179 L65.581138,73.3307179 L67.0485834,78.1192553 C66.6078435,78.2808129 66.1038928,78.3757006 65.5662394,78.3757006 Z M76.4856528,68.6579755 L71.7610429,68.6568059 L71.7610429,80.0105756 L67.6331025,68.6568059 L63.5408899,68.6568059 L60.0159835,78.150982 C59.6427939,75.7583216 57.1923265,74.9297724 55.2638906,74.3100054 C53.988826,73.8975584 52.6415824,73.288903 52.6535882,72.6172328 C52.662267,72.0666212 53.3787043,71.5543155 54.7917623,71.6318047 C55.7418048,71.6835616 56.5814815,71.7598811 58.2475274,72.5739558 L59.8924548,69.6839027 C58.3680185,68.9000926 56.2638364,68.4066475 54.5400763,68.4037234 L54.5285045,68.4037234 C52.5180538,68.4037234 50.8414486,69.0639895 49.8034607,70.1482528 C49.0800803,70.9066231 48.6896776,71.8673425 48.67232,72.9334763 C48.6465728,74.3997758 49.178151,75.4382767 50.2962735,76.2687265 C51.2376372,76.9665676 52.4442837,77.4205371 53.5075849,77.7552025 C54.8186667,78.164433 55.8893449,78.5211755 55.876182,79.2824699 C55.8705408,79.5602612 55.7648037,79.8177299 55.5673604,80.0270968 C55.2394453,80.3690726 54.7380983,80.4975876 54.0445152,80.5110385 C52.7043593,80.5380867 51.7122245,80.3263804 50.1319544,79.3824748 L48.67232,82.3117111 C50.2502757,83.2187728 52.1175258,83.7499391 54.0205037,83.7499391 L54.2659699,83.7478922 C55.9249281,83.7182124 57.2624803,83.2383644 58.3334478,82.36917 C58.3921746,82.3215069 58.4491656,82.2693114 58.5054333,82.2187241 L58.0328711,83.4993421 L62.3232502,83.4993421 L63.0441716,81.2849067 C63.7982172,81.5419367 64.6555409,81.6878503 65.5662394,81.6878503 C66.4516246,81.6878503 67.2891316,81.5507091 68.029725,81.3052293 L68.7234527,83.4993421 L75.7219159,83.4993421 L75.7219159,78.9131537 L77.2483772,78.9131537 C80.9383261,78.9131537 83.122932,77.0145231 83.122932,73.8304498 C83.122932,70.2848092 81.0015369,68.6579755 76.4856528,68.6579755 Z" id="logo-sap"></path>
        </g>
    </g>
</svg>