<?xml version="1.0" encoding="UTF-8"?>
<svg width="40px" height="49px" viewBox="0 0 40 49" version="1.1" xmlns="http://www.w3.org/2000/svg" xmlns:xlink="http://www.w3.org/1999/xlink">
    <!-- Generator: Sketch 53.2 (72643) - https://sketchapp.com -->
    <title>iOS</title>
    <desc>Created with Sketch.</desc>
    <g id="Home" stroke="none" stroke-width="1" fill="none" fill-rule="evenodd">
        <g id="Home_Desktop-Copy-3" transform="translate(-195.000000, -1639.000000)" fill="#32363A">
            <g id="Group-11-Copy" transform="translate(164.000000, 1638.000000)">
                <g id="Android" transform="translate(25.000000, 0.000000)">
                    <g id="icons8-android-os-filled" transform="translate(6.431250, 0.000000)">
                        <path d="M10.8828807,0.997001362 C10.7585267,1.01966048 10.6304036,1.04231961 10.5211229,1.11785001 C10.0802308,1.41619536 9.98225423,2.03554469 10.279951,2.47739732 L12.3600584,5.58925006 C9.14568978,7.29623724 6.74904432,10.1324042 5.9690038,13.5350488 L32.6184955,13.5350488 C31.838455,10.1324042 29.4418096,7.29623724 26.227441,5.58925006 L28.3075483,2.47739732 C28.6052451,2.03554469 28.5072686,1.41619536 28.0663765,1.11785001 C27.6217163,0.819504665 27.0074815,0.947906549 26.7097847,1.38975947 L24.4186519,4.77352167 C22.8284254,4.19193803 21.1025387,3.8671568 19.2937497,3.8671568 C17.4849606,3.8671568 15.7590749,4.19193803 14.1688474,4.77352167 L11.8777146,1.38975947 C11.6553841,1.05742569 11.2521756,0.925247427 10.8828807,0.997001362 Z M13.9879685,8.70110279 C14.7868503,8.70110279 15.4349997,9.35066429 15.4349997,10.1512866 C15.4349997,10.9556852 14.7868503,11.6014704 13.9879685,11.6014704 C13.1853186,11.6014704 12.5409373,10.9556852 12.5409373,10.1512866 C12.5409373,9.35066429 13.1853186,8.70110279 13.9879685,8.70110279 Z M24.5995308,8.70110279 C25.4021807,8.70110279 26.0465621,9.35066429 26.0465621,10.1512866 C26.0465621,10.9556852 25.4021807,11.6014704 24.5995308,11.6014704 C23.800649,11.6014704 23.1524996,10.9556852 23.1524996,10.1512866 C23.1524996,9.35066429 23.800649,8.70110279 24.5995308,8.70110279 Z M2.89406245,15.4686272 C1.29629881,15.4686272 0,16.7677502 0,18.3689948 L0,31.9040436 C0,33.5052882 1.29629881,34.8044112 2.89406245,34.8044112 C3.23321088,34.8044112 3.5572851,34.732657 3.85874993,34.6231382 L3.85874993,15.6499002 C3.5572851,15.5403813 3.23321088,15.4686272 2.89406245,15.4686272 Z M5.7881249,15.4686272 L5.7881249,36.7379896 C5.7881249,38.3354579 7.08819178,39.6383572 8.68218735,39.6383572 L29.905312,39.6383572 C31.4993076,39.6383572 32.7993744,38.3354579 32.7993744,36.7379896 L32.7993744,15.4686272 L5.7881249,15.4686272 Z M35.6934369,15.4686272 C35.3542894,15.4686272 35.0302142,15.5403813 34.7287494,15.6499002 L34.7287494,34.6231382 C35.0302142,34.7288808 35.3542894,34.8044112 35.6934369,34.8044112 C37.2912005,34.8044112 38.5874993,33.5052882 38.5874993,31.9040436 L38.5874993,18.3689948 C38.5874993,16.7677502 37.2912005,15.4686272 35.6934369,15.4686272 Z M9.64687484,41.5719356 L9.64687484,45.4390924 C9.64687484,47.5728261 11.3765296,49.3062492 13.5056248,49.3062492 C15.63472,49.3062492 17.3643747,47.5728261 17.3643747,45.4390924 L17.3643747,41.5719356 L9.64687484,41.5719356 Z M21.2231246,41.5719356 L21.2231246,45.4390924 C21.2231246,47.5728261 22.9527794,49.3062492 25.0818746,49.3062492 C27.2109698,49.3062492 28.9406245,47.5728261 28.9406245,45.4390924 L28.9406245,41.5719356 L21.2231246,41.5719356 Z" id="Shape" fill-rule="nonzero"></path>
                    </g>
                </g>
            </g>
        </g>
    </g>
</svg>