<svg xmlns="http://www.w3.org/2000/svg" xmlns:xlink="http://www.w3.org/1999/xlink" width="120" height="105" viewBox="0 0 120 105">
  <defs>
    <polygon id="a" points="55 0 110 28.618 55 55 0 28.618"/>
    <polygon id="d" points="60 25 115 53.618 60 80 5 53.618"/>
    <filter id="c" width="112.7%" height="125.5%" x="-6.4%" y="-9.1%" filterUnits="objectBoundingBox">
      <feOffset dy="2" in="SourceAlpha" result="shadowOffsetOuter1"/>
      <feGaussianBlur in="shadowOffsetOuter1" result="shadowBlurOuter1" stdDeviation="2"/>
      <feColorMatrix in="shadowBlurOuter1" values="0 0 0 0 0 0 0 0 0 0 0 0 0 0 0 0 0 0 0.13 0"/>
    </filter>
    <polygon id="f" points="60 5 115 33.618 60 60 5 33.618"/>
    <filter id="e" width="112.7%" height="125.5%" x="-6.4%" y="-9.1%" filterUnits="objectBoundingBox">
      <feOffset dy="2" in="SourceAlpha" result="shadowOffsetOuter1"/>
      <feGaussianBlur in="shadowOffsetOuter1" result="shadowBlurOuter1" stdDeviation="2"/>
      <feColorMatrix in="shadowBlurOuter1" values="0 0 0 0 0 0 0 0 0 0 0 0 0 0 0 0 0 0 0.13 0"/>
    </filter>
  </defs>
  <g fill="none" fill-rule="evenodd">
    <g transform="translate(5 45)">
      <mask id="b" fill="white">
        <use xlink:href="#a"/>
      </mask>
      <use fill="#1E4452" fill-rule="nonzero" xlink:href="#a"/>
      <g fill="#537380" mask="url(#b)">
        <g transform="rotate(26 23.308 16.903)">
          <rect width="100" height="1" y="24"/>
          <rect width="100" height="1" y="21"/>
          <rect width="100" height="1" y="18"/>
          <rect width="100" height="1" y="15"/>
          <rect width="100" height="1" y="12"/>
          <rect width="100" height="1" y="9"/>
          <rect width="100" height="1" y="6"/>
          <rect width="100" height="1" y="3"/>
          <rect width="100" height="1"/>
        </g>
      </g>
    </g>
    <g fill-rule="nonzero">
      <use fill="black" filter="url(#c)" xlink:href="#d"/>
      <use fill="#297794" xlink:href="#d"/>
    </g>
    <ellipse cx="61" cy="61.5" fill="#445E75" rx="9" ry="7.5"/>
    <ellipse cx="80.5" cy="49.5" fill="#CAE4FB" rx="9.5" ry="7.5"/>
    <ellipse cx="40.5" cy="49.5" fill="#445E75" rx="9.5" ry="7.5"/>
    <g fill-rule="nonzero">
      <use fill="black" filter="url(#e)" xlink:href="#f"/>
      <use fill="#5DCCF5" xlink:href="#f"/>
    </g>
    <path fill="#1E4452" fill-rule="nonzero" d="M55.6607599,35.4444965 L45.6219927,40.1480525 L47.5924994,45.5116303 L44.6006869,47 L37,27.2031656 L40.8935275,25.5605745 L64.9948315,36.9223019 L61.7023657,38.5157649 L55.6607599,35.4444965 Z M52.9717576,34.1982125 L45.0746844,31.1397835 C44.2625416,30.8815179 43.4777674,30.6304188 42.7205188,30.3861112 C41.9611521,30.146119 41.4378854,29.9708145 41.1520134,29.8575229 C41.2865033,30.067964 41.4649511,30.4066534 41.6869082,30.8745243 C41.908007,31.3441409 42.111437,31.8223279 42.2973236,32.3088565 L44.6511376,37.4445225 L52.9717576,34.1982125 Z M72.6111786,33.7468635 C70.6823893,34.6608159 68.951547,35.0220447 67.4058859,34.85644 C65.8576946,34.6960002 64.5957016,34.089008 63.6146755,33.0460079 C62.4183658,31.8129796 62.3395606,30.5760901 63.3973598,29.296413 C64.4670003,27.9926285 66.1919787,26.7121781 68.5801103,25.4392407 L72.4614229,23.3043537 L71.8298536,22.6443384 C71.0880615,21.8844088 70.1493623,21.491961 69.0165903,21.4611615 C67.8823101,21.4334399 66.6659332,21.7736528 65.373199,22.4700535 C64.3289187,23.0258184 63.5087329,23.6362831 62.912002,24.3027141 C62.3184985,24.962575 61.8356098,25.8258097 61.4636069,26.8918594 L58.2502006,26.7820576 C58.4814509,25.8462665 59.0447266,24.8859453 59.9440828,23.8928479 C60.8510081,22.8843425 62.1619532,21.9215668 63.879455,20.9994192 C65.411243,20.1632374 66.8940465,19.5845532 68.3225777,19.274204 C69.7526625,18.9607044 71.0378144,18.9145135 72.1742445,19.1434172 C73.30711,19.3795841 74.2323317,19.8718531 74.9488097,20.6225294 L79.7404049,26.0691865 C80.53396,27.0480456 81.2865723,27.9096298 82,28.6504331 L78.8413556,30.3151768 C78.2957508,29.8002518 77.7524099,29.2119004 77.210778,28.5512012 L77.138301,28.5891967 C76.958012,29.6463223 76.5332551,30.5913987 75.8663102,31.4197906 C75.2035888,32.2395849 74.1174205,33.0175765 72.6111786,33.7468635 Z M71.9099192,31.7066787 C73.0469976,31.1446451 73.9098747,30.5087279 74.4972793,29.8015437 C75.0879128,29.0877867 75.4041587,28.3835734 75.4436613,27.6936961 C75.4832477,27.0036463 75.2803128,26.4026703 74.8332132,25.8940839 L73.8389852,24.786672 L70.7853122,26.4690455 C69.0209881,27.4214304 67.750308,28.3133797 66.9680483,29.1554652 C66.191163,29.9866104 66.1658316,30.7776901 66.8842165,31.544682 C67.3840524,32.0877515 68.0810643,32.3803163 68.9767472,32.4193876 C69.8718918,32.4595592 70.8483897,32.2244678 71.9099192,31.7066787 Z" opacity=".3"/>
  </g>
</svg>
