<svg xmlns="http://www.w3.org/2000/svg" xmlns:xlink="http://www.w3.org/1999/xlink" width="120" height="105" viewBox="0 0 120 105">
  <defs>
    <polygon id="b" points="5 41.784 60 73.086 115 41.784 60 10"/>
    <filter id="a" width="110%" height="117.4%" x="-5%" y="-5.5%" filterUnits="objectBoundingBox">
      <feOffset dy="2" in="SourceAlpha" result="shadowOffsetOuter1"/>
      <feGaussianBlur in="shadowOffsetOuter1" result="shadowBlurOuter1" stdDeviation="1.5"/>
      <feColorMatrix in="shadowBlurOuter1" values="0 0 0 0 0 0 0 0 0 0 0 0 0 0 0 0 0 0 0.12536798 0"/>
    </filter>
  </defs>
  <g fill="none" fill-rule="evenodd">
    <polygon fill="#1E4452" fill-rule="nonzero" points="5 61.865 60 93.167 115 61.865 60 30.081"/>
    <polygon fill="#297794" fill-rule="nonzero" points="19.963 61.086 30.159 66.89 72.352 42.809 62.205 36.654"/>
    <polygon fill="#297794" fill-rule="nonzero" points="31.287 67.548 41.483 73.351 83.676 49.27 73.528 43.115"/>
    <polygon fill="#297794" fill-rule="nonzero" points="57.169 83.702 66.79 89.178 109.034 65.106 99.411 59.269"/>
    <g fill-rule="nonzero">
      <use fill="black" filter="url(#a)" xlink:href="#b"/>
      <use fill="#297794" xlink:href="#b"/>
    </g>
    <polygon fill="#5DCCF5" points="19.963 41.005 30.159 46.808 72.352 22.727 62.205 16.572"/>
    <polygon fill="#5DCCF5" points="31.287 47.466 41.483 53.27 83.676 29.189 73.528 23.034"/>
    <polygon fill="#5DCCF5" points="57.169 63.62 66.848 69.129 108.965 44.983 99.411 39.188"/>
  </g>
</svg>
