<svg width="48px" height="24px" viewBox="0 0 48 24" version="1.1" xmlns="http://www.w3.org/2000/svg" xmlns:xlink="http://www.w3.org/1999/xlink"><defs><linearGradient x1="50%" y1="0%" x2="50%" y2="100%" id="a"><stop stop-color="#01ABDA" offset="0%"/><stop stop-color="#105C9B" offset="100%"/></linearGradient></defs><path d="M0 24V0h48L24.257 24H0zm28.764-12.37h-1.042V7.782h1.042c1.388 0 2.493.466 2.493 1.903 0 1.48-1.105 1.947-2.493 1.947zm-11.198 2.746c-.55 0-1.068-.1-1.514-.27L17.55 9.33h.031l1.468 4.788c-.441.162-.945.257-1.483.257zm10.92-9.718l-4.725-.001V16.01L19.633 4.657h-4.092l-3.525 9.494c-.373-2.393-2.824-3.221-4.752-3.841-1.275-.412-2.622-1.021-2.61-1.693.008-.55.725-1.063 2.138-.985.95.052 1.79.128 3.456.942l1.644-2.89C10.368 4.9 8.264 4.407 6.54 4.404H6.53c-2.01 0-3.688.66-4.726 1.744a4.057 4.057 0 0 0-1.13 2.785c-.026 1.467.505 2.505 1.623 3.336.942.698 2.148 1.152 3.212 1.486 1.31.41 2.381.766 2.368 1.527a1.103 1.103 0 0 1-.309.745c-.328.342-.829.47-1.522.484-1.34.027-2.333-.185-3.913-1.129l-1.46 2.93a10.825 10.825 0 0 0 5.349 1.438l.245-.002c1.659-.03 2.996-.51 4.067-1.379.06-.047.116-.1.172-.15l-.472 1.28h4.29l.721-2.214a7.85 7.85 0 0 0 2.522.403c.886 0 1.723-.137 2.464-.383l.693 2.194h6.999v-4.586h1.526c3.69 0 5.875-1.898 5.875-5.083 0-3.545-2.121-5.172-6.637-5.172z" fill="url(#a)" fill-rule="evenodd"/></svg>
