<?xml version="1.0" encoding="UTF-8"?>
<svg width="54px" height="54px" viewBox="0 0 54 54" version="1.1" xmlns="http://www.w3.org/2000/svg" xmlns:xlink="http://www.w3.org/1999/xlink">
    <!-- Generator: Sketch 53.2 (72643) - https://sketchapp.com -->
    <title>Shape</title>
    <desc>Created with Sketch.</desc>
    <g id="Home" stroke="none" stroke-width="1" fill="none" fill-rule="evenodd">
        <g id="Home_TabletLandscape-Copy" transform="translate(-201.000000, -704.000000)" fill="#FFFFFF" fill-rule="nonzero">
            <g id="Group-5" transform="translate(169.000000, 704.000000)">
                <path d="M52.6181818,30.6818182 C54.5511364,30.6818182 56.3409091,31.0288149 57.9875,31.7228084 C59.6340909,32.4168019 61.0838068,33.371043 62.3366477,34.5855317 C63.5894886,35.8000203 64.5738636,37.2053571 65.2897727,38.8015422 C66.0056818,40.3977273 66.3636364,42.132711 66.3636364,44.0064935 L66.3636364,54 L32,54 L32,44.0064935 C32,42.132711 32.3579545,40.3977273 33.0738636,38.8015422 C33.7897727,37.2053571 34.7741477,35.8000203 36.0269886,34.5855317 C37.2798295,33.371043 38.7474432,32.4168019 40.4298295,31.7228084 C42.1122159,31.0288149 43.8840909,30.6818182 45.7454545,30.6818182 L52.6181818,30.6818182 Z M62.6818182,43.4454545 C62.6818182,40.5818182 61.6974432,38.1477273 59.7286932,36.1431818 C57.7599432,34.1386364 55.3693182,33.1363636 52.5568182,33.1363636 L45.8068182,33.1363636 C44.4005682,33.1363636 43.0997869,33.4048295 41.9044744,33.9417614 C40.7091619,34.4786932 39.6368963,35.2125 38.6876776,36.1431818 C37.7384588,37.0738636 37.0001776,38.165625 36.4728338,39.4184659 C35.9454901,40.6713068 35.6818182,42.0136364 35.6818182,43.4454545 L35.6818182,50.3181818 L62.6818182,50.3181818 L62.6818182,43.4454545 Z M59,20.25 C59,23.1477273 57.9857955,25.6107955 55.9573864,27.6392045 C53.9289773,29.6676136 51.4659091,30.6818182 48.5681818,30.6818182 C45.6704545,30.6818182 43.2073864,29.6676136 41.1789773,27.6392045 C39.1505682,25.6107955 38.1363636,23.1477273 38.1363636,20.25 C38.1363636,17.3522727 39.1505682,14.8892045 41.1789773,12.8607955 C43.2073864,10.8323864 45.6704545,9.81818182 48.5681818,9.81818182 C51.4659091,9.81818182 53.9289773,10.8323864 55.9573864,12.8607955 C57.9857955,14.8892045 59,17.3522727 59,20.25 Z M48.5681818,27 C50.4666193,27 52.0662287,26.3320312 53.3670099,24.9960938 C54.6677912,23.6601562 55.3181818,22.078125 55.3181818,20.25 C55.3181818,18.3515625 54.6677912,16.7519531 53.3670099,15.4511719 C52.0662287,14.1503906 50.4666193,13.5 48.5681818,13.5 C46.7400568,13.5 45.1580256,14.1503906 43.8220881,15.4511719 C42.4861506,16.7519531 41.8181818,18.3515625 41.8181818,20.25 C41.8181818,22.078125 42.4861506,23.6601562 43.8220881,24.9960938 C45.1580256,26.3320312 46.7400568,27 48.5681818,27 Z M79.8636364,8.59090909 C79.8636364,10.9534091 79.0403409,12.9758523 77.39375,14.6582386 C75.7471591,16.340625 73.7068182,17.1818182 71.2727273,17.1818182 C68.9102273,17.1818182 66.8877841,16.340625 65.2053977,14.6582386 C63.5230114,12.9758523 62.6818182,10.9534091 62.6818182,8.59090909 C62.6818182,6.22840909 63.5230114,4.20596591 65.2053977,2.52357955 C66.8877841,0.841193182 68.9102273,0 71.2727273,0 C73.7068182,0 75.7471591,0.841193182 77.39375,2.52357955 C79.0403409,4.20596591 79.8636364,6.22840909 79.8636364,8.59090909 Z M71.2727273,13.5 C72.6363636,13.5 73.7954545,13.0227273 74.75,12.0681818 C75.7045455,11.1136364 76.1818182,9.95454545 76.1818182,8.59090909 C76.1818182,7.22727273 75.7045455,6.06818182 74.75,5.11363636 C73.7954545,4.15909091 72.6363636,3.68181818 71.2727273,3.68181818 C69.9090909,3.68181818 68.75,4.15909091 67.7954545,5.11363636 C66.8409091,6.06818182 66.3636364,7.22727273 66.3636364,8.59090909 C66.3636364,9.95454545 66.8409091,11.1136364 67.7954545,12.0681818 C68.75,13.0227273 69.9090909,13.5 71.2727273,13.5 Z M72.6753247,15.9545455 C74.5491071,15.9545455 76.2840909,16.3167614 77.880276,17.0411932 C79.476461,17.765625 80.8817979,18.7617188 82.0962865,20.0294744 C83.3107752,21.2972301 84.2650162,22.7642045 84.9590097,24.4303977 C85.6530032,26.0965909 86,27.9076705 86,29.8636364 L86,36.8181818 L69.4482549,36.8181818 L69.4482549,33.3409091 L82.6688312,33.3409091 L82.6688312,29.8636364 C82.6688312,26.9659091 81.6972403,24.5028409 79.7540584,22.4744318 C77.8108766,20.4460227 75.4512987,19.4318182 72.6753247,19.4318182 L69.3441558,19.4318182 C66.7763799,19.4318182 64.5556006,20.337358 62.6818182,22.1484375 L62.6818182,17.9105114 C64.625,16.6065341 66.8457792,15.9545455 69.3441558,15.9545455 L72.6753247,15.9545455 Z" id="Shape"></path>
            </g>
        </g>
    </g>
</svg>