<?xml version="1.0" encoding="UTF-8"?>
<svg width="54px" height="54px" viewBox="0 0 54 54" version="1.1" xmlns="http://www.w3.org/2000/svg" xmlns:xlink="http://www.w3.org/1999/xlink">
    <!-- Generator: Sketch 53.2 (72643) - https://sketchapp.com -->
    <title>Shape</title>
    <desc>Created with Sketch.</desc>
    <g id="Home" stroke="none" stroke-width="1" fill="none" fill-rule="evenodd">
        <g id="Home_TabletLandscape-Copy" transform="translate(-627.000000, -704.000000)" fill="#FFFFFF" fill-rule="nonzero">
            <g id="Group-5" transform="translate(169.000000, 704.000000)">
                <path d="M512,7.69921875 L512,11.4960938 L504.164706,11.4960938 L504.164706,46.1953125 L469.541176,46.1953125 L469.541176,54 L465.835294,54 L465.835294,46.1953125 L458,46.1953125 L458,42.3984375 L465.835294,42.3984375 L465.835294,7.69921875 L500.458824,7.69921875 L500.458824,0 L504.164706,0 L504.164706,7.69921875 L512,7.69921875 Z M500,10.8 L468.8,10.8 L468.8,42 L500,42 L500,10.8 Z M492.565455,38.4 L473.6,38.4 L483.134545,19.2 L488.109091,29.2721311 L490.7,24.9704918 L496.4,34.5180328 L490.7,34.5180328 L492.565455,38.4 Z M493.345455,21.6 C492.545455,21.6 491.854545,21.3090909 491.272727,20.7272727 C490.690909,20.1454545 490.4,19.4545455 490.4,18.6545455 C490.4,17.7818182 490.690909,17.0545455 491.272727,16.4727273 C491.854545,15.8909091 492.545455,15.6 493.345455,15.6 C494.218182,15.6 494.945455,15.8909091 495.527273,16.4727273 C496.109091,17.0545455 496.4,17.7818182 496.4,18.6545455 C496.4,19.4545455 496.109091,20.1454545 495.527273,20.7272727 C494.945455,21.3090909 494.218182,21.6 493.345455,21.6 Z" id="Shape"></path>
            </g>
        </g>
    </g>
</svg>