<?xml version="1.0" encoding="UTF-8"?>
<svg width="15px" height="16px" viewBox="0 0 15 16" version="1.1" xmlns="http://www.w3.org/2000/svg" xmlns:xlink="http://www.w3.org/1999/xlink">
    <!-- Generator: Sketch 53.1 (72631) - https://sketchapp.com -->
    <title>cross</title>
    <desc>Created with Sketch.</desc>
    <g id="Top-Navigation" stroke="none" stroke-width="1" fill="none" fill-rule="evenodd">
        <g id="Header-Desktop-1280VP-Inactive-State-Copy-15" transform="translate(-1117.000000, -23.000000)" fill="#696969" fill-rule="nonzero">
            <g id="Group-6" transform="translate(148.000000, 12.000000)">
                <path d="M983.78125,13.0585938 C983.92448,13.2018236 983.996094,13.3665355 983.996094,13.5527344 C983.996094,13.7389332 983.92448,13.9036451 983.78125,14.046875 L978.453125,19.375 L983.78125,24.7460938 C984.096356,25.0611995 984.096356,25.3763005 983.78125,25.6914062 L982.835938,26.6796875 C982.492186,26.9947932 982.162762,26.9947932 981.847656,26.6796875 L976.476562,21.3085938 L971.148438,26.6796875 C971.005208,26.8229174 970.840496,26.8945312 970.654297,26.8945312 C970.468098,26.8945312 970.303386,26.8229174 970.160156,26.6796875 L969.214844,25.6914062 C969.071614,25.5481764 969,25.3906259 969,25.21875 C969,25.0468741 969.071614,24.8893236 969.214844,24.7460938 L974.542969,19.375 L969.214844,14.046875 C969.071614,13.9036451 969,13.7389332 969,13.5527344 C969,13.3665355 969.071614,13.2018236 969.214844,13.0585938 L970.160156,12.0703125 C970.503908,11.7552068 970.833332,11.7552068 971.148438,12.0703125 L976.476562,17.4414062 L981.847656,12.0703125 C982.162762,11.7552068 982.492186,11.7552068 982.835938,12.0703125 L983.78125,13.0585938 Z" id=""></path>
            </g>
        </g>
    </g>
</svg>