<svg xmlns="http://www.w3.org/2000/svg" width="63" height="32" viewBox="-1 -1 63 32">
    <title>SAP Logo</title>
    <defs>
        <linearGradient x1="50%" y1="0%" x2="50%" y2="100%" id="ema">
            <stop stop-color="#00B8F2" offset="0%"/><stop stop-color="#1D61BC" offset="100%"/>
        </linearGradient>
    </defs>
    <g fill="none" fill-rule="evenodd">
        <path d="M0 30h30.49L60.336 0H0v30z" fill="url(#ema)"/>
        <path d="M36.765 18.33h-1.92v5.705H26.05l-.873-2.73a9.986 9.986 0 0 1-3.097.477 9.965 9.965 0 0 1-3.17-.5l-.906 2.753H12.61l.595-1.593c-.07.063-.142.128-.216.187-1.348 1.08-3.03 1.676-5.115 1.713l-.308.002c-2.392 0-4.74-.66-6.723-1.788l1.835-3.643c1.985 1.174 3.232 1.437 4.917 1.403.872-.017 1.502-.176 1.914-.6.25-.26.38-.582.39-.927.016-.946-1.33-1.39-2.978-1.9-1.337-.415-2.853-.98-4.037-1.847C1.48 14.01.813 12.72.845 10.895a5.017 5.017 0 0 1 1.42-3.464c1.307-1.346 3.414-2.167 5.94-2.167h.016c2.168.004 4.813.617 6.73 1.592l-2.07 3.594C10.79 9.435 9.73 9.34 8.54 9.275c-1.776-.096-2.677.54-2.688 1.226-.016.835 1.678 1.592 3.28 2.105 2.425.77 5.505 1.8 5.974 4.776l4.43-11.806h5.144l5.19 14.12V5.577h5.938c5.676 0 8.343 2.023 8.343 6.433 0 3.96-2.748 6.32-7.386 6.32zm-.61-8.868h-1.31v4.787h1.31c1.745 0 3.134-.58 3.134-2.42 0-1.79-1.39-2.37-3.136-2.37zM22.06 11.39l-1.883 5.938a5.39 5.39 0 0 0 1.903.336 5.46 5.46 0 0 0 1.864-.32L22.1 11.39h-.04z" fill="#FFF"/>
        <path d="M39.365 29.818c1.052 0 1.955-.82 1.955-1.94 0-1.112-.903-1.93-1.955-1.93-1.066 0-1.966.82-1.966 1.93 0 1.12.9 1.94 1.964 1.94z" fill="#1D61BC"/>
        <path d="M37.788 27.878c0-.917.692-1.61 1.577-1.61.873 0 1.566.693 1.566 1.61 0 .932-.69 1.617-1.564 1.617-.885 0-1.577-.685-1.577-1.617z" fill="#FFF"/>
        <path d="M38.954 28.03h.39l.587.967h.38l-.635-.982c.328-.04.58-.214.58-.614 0-.44-.26-.633-.787-.633h-.85v2.23h.337v-.966z" fill="#1D62BD"/>
        <path d="M38.954 27.743v-.69h.463c.23 0 .48.05.48.327 0 .345-.254.363-.537.363h-.406z" fill="#FFF"/>
    </g>
</svg>
