<svg width="33px" height="16px" viewBox="0 0 33 16" version="1.1" xmlns="http://www.w3.org/2000/svg" xmlns:xlink="http://www.w3.org/1999/xlink">
    <title>SAP Logo</title>
    <defs>
        <linearGradient x1="50%" y1="0%" x2="50%" y2="100%" id="linearGradient-1">
            <stop stop-color="#00B8F2" offset="0%"></stop>
            <stop stop-color="#1D61BC" offset="100%"></stop>
        </linearGradient>
    </defs>
    <g id="Page-1" stroke="none" stroke-width="1" fill="none" fill-rule="evenodd">
        <g id="logo_sap_blue_61x30" fill-rule="nonzero">
            <polygon id="Path" fill="url(#linearGradient-1)" points="0 16 16.2613333 16 32.1792 0 0 0"></polygon>
            <path d="M19.608,9.776 L18.584,9.776 L18.584,12.8186667 L13.8933333,12.8186667 L13.4277333,11.3626667 C12.8939738,11.5338597 12.3365348,11.6197165 11.776,11.6170667 C11.2017384,11.620103 10.6307806,11.5300465 10.0853333,11.3504 L9.60213333,12.8186667 L6.72533333,12.8186667 L7.04266667,11.9690667 C7.00533333,12.0026667 6.96693333,12.0373333 6.92746667,12.0688 C6.20746667,12.6448 5.31146667,12.9621333 4.19893333,12.9818667 L4.03466667,12.9829333 C2.75893333,12.9829333 1.50666667,12.6309333 0.449066667,12.0293333 L1.42773333,10.0864 C2.4864,10.7125333 3.15146667,10.8528 4.05013333,10.8346667 C4.5152,10.8256 4.8512,10.7408 5.07093333,10.5146667 C5.20426667,10.376 5.2736,10.2042667 5.27893333,10.0202667 C5.28693333,9.5152 4.5696,9.27893333 3.6896,9.00693333 C2.97706667,8.78506667 2.16853333,8.48426667 1.53706667,8.02133333 C0.789333333,7.472 0.434133333,6.784 0.450133333,5.81066667 C0.454747453,5.12019518 0.726104164,4.45823768 1.20746667,3.9632 C1.90506667,3.24586667 3.0288,2.808 4.37546667,2.808 L4.38453333,2.808 C5.54186667,2.81013333 6.952,3.13706667 7.97386667,3.65706667 L6.86986667,5.57386667 C5.7552,5.03253333 5.18986667,4.98186667 4.5552,4.9472 C3.608,4.896 3.12746667,5.2352 3.1216,5.60106667 C3.11306667,6.04693333 4.01653333,6.45066667 4.87093333,6.72426667 C6.16426667,7.13493333 7.80693333,7.68426667 8.05706667,9.27146667 L10.4197333,2.97493333 L13.1632,2.97493333 L15.9312,10.5056 L15.9312,2.97386667 L19.0981333,2.97386667 C22.1253333,2.97386667 23.5477333,4.05333333 23.5477333,6.40533333 C23.5477333,8.51733333 22.0826667,9.776 19.6090667,9.776 L19.608,9.776 Z M19.2826667,5.0464 L18.584,5.0464 L18.584,7.59946667 L19.2826667,7.59946667 C20.2133333,7.59946667 20.9541333,7.29013333 20.9541333,6.3088 C20.9541333,5.35413333 20.2128,5.0448 19.2810667,5.0448 L19.2826667,5.0464 Z M11.7653333,6.07466667 L10.7610667,9.2416 C11.08582,9.36198682 11.429656,9.42269564 11.776,9.4208 C12.1365333,9.4208 12.4746667,9.35786667 12.7701333,9.25013333 L11.7866667,6.07466667 L11.7653333,6.07466667 L11.7653333,6.07466667 Z" id="Shape" fill="#FFFFFF"></path>
            <path d="M20.9946667,15.9029333 C21.5557333,15.9029333 22.0373333,15.4656 22.0373333,14.8682667 C22.0373333,14.2752 21.5557333,13.8389333 20.9946667,13.8389333 C20.4261333,13.8389333 19.9461333,14.2762667 19.9461333,14.8682667 C19.9461333,15.4656 20.4261333,15.9029333 20.9930667,15.9029333 L20.9946667,15.9029333 Z" id="Path" fill="#1D61BC"></path>
            <path d="M20.1536,14.8682667 C20.1536,14.3792 20.5226667,14.0096 20.9946667,14.0096 C21.4602667,14.0096 21.8298667,14.3792 21.8298667,14.8682667 C21.8298667,15.3653333 21.4618667,15.7306667 20.9962667,15.7306667 C20.5242667,15.7306667 20.1552,15.3653333 20.1552,14.8682667 L20.1536,14.8682667 Z" id="Path" fill="#FFFFFF"></path>
            <path d="M20.7754667,14.9493333 L20.9834667,14.9493333 L21.2965333,15.4650667 L21.4992,15.4650667 L21.1610667,14.9413333 C21.336,14.92 21.4704,14.8272 21.4704,14.6138667 C21.4704,14.3792 21.3317333,14.2768 21.0506667,14.2768 L20.5973333,14.2768 L20.5973333,15.4661333 L20.7765333,15.4661333 L20.7765333,14.9509333 L20.7754667,14.9493333 Z" id="Path" fill="#1D62BD"></path>
            <path d="M20.7754667,14.7962667 L20.7754667,14.4282667 L21.0224,14.4282667 C21.1450667,14.4282667 21.2784,14.4549333 21.2784,14.6026667 C21.2784,14.7866667 21.1429333,14.7962667 20.992,14.7962667 L20.7754667,14.7962667 Z" id="Path" fill="#FFFFFF"></path>
        </g>
    </g>
</svg>
