<?xml version="1.0" encoding="UTF-8"?>
<svg width="28px" height="28px" viewBox="0 0 28 28" version="1.1" xmlns="http://www.w3.org/2000/svg" xmlns:xlink="http://www.w3.org/1999/xlink">
    <!-- Generator: Sketch 53 (72520) - https://sketchapp.com -->
    <title>search</title>
    <desc>Created with Sketch.</desc>
    <g id="Page-1" stroke="none" stroke-width="1" fill="none" fill-rule="evenodd">
        <g id="search" transform="translate(-1.000000, -1.000000)" fill="#696969" fill-rule="nonzero">
            <path d="M28.375,25.625 C28.7916667,26.0003333 29,26.469 29,27.031 C29,27.593 28.7916667,28.0616667 28.375,28.437 C27.9996667,28.8123333 27.5413333,29 27,29 C26.4586667,29 25.9793333,28.8123333 25.562,28.437 L18.249,21.062 C16.3736667,22.354 14.2903333,23 11.999,23 C10.499,23 9.08233333,22.7186667 7.749,22.156 C6.41566667,21.5933333 5.249,20.812 4.249,19.812 C3.249,18.812 2.45733333,17.6453333 1.874,16.312 C1.29066667,14.9786667 0.999,13.541 0.999,11.999 C0.999,10.499 1.29066667,9.08233333 1.874,7.749 C2.45733333,6.41566667 3.249,5.249 4.249,4.249 C5.249,3.249 6.41566667,2.45733333 7.749,1.874 C9.08233333,1.29066667 10.499,0.999 11.999,0.999 C13.499,0.999 14.9156667,1.29066667 16.249,1.874 C17.5823333,2.45733333 18.749,3.249 19.749,4.249 C20.749,5.249 21.5406667,6.41566667 22.124,7.749 C22.7073333,9.08233333 22.999,10.499 22.999,11.999 C22.999,13.1656667 22.822,14.27 22.468,15.312 C22.114,16.354 21.6453333,17.3333333 21.062,18.25 L28.375,25.625 Z M12,21 C13.25,21 14.4166667,20.7706667 15.5,20.312 C16.5833333,19.8533333 17.5313333,19.218 18.344,18.406 C19.1566667,17.594 19.8026667,16.6356667 20.282,15.531 C20.7613333,14.4263333 21.001,13.2493333 21.001,12 C21.001,10.7506667 20.7613333,9.584 20.282,8.5 C19.8026667,7.416 19.1566667,6.468 18.344,5.656 C17.5313333,4.844 16.5833333,4.198 15.5,3.718 C14.4166667,3.238 13.25,2.99833333 12,2.999 C10.75,2.99966667 9.573,3.23933333 8.469,3.718 C7.365,4.19666667 6.40666667,4.84266667 5.594,5.656 C4.78133333,6.46933333 4.146,7.41733333 3.688,8.5 C3.23,9.58266667 3.00066667,10.7493333 3,12 C2.99933333,13.2506667 3.22866667,14.4276667 3.688,15.531 C4.14733333,16.6343333 4.78266667,17.5926667 5.594,18.406 C6.40533333,19.2193333 7.36366667,19.8546667 8.469,20.312 C9.57433333,20.7693333 10.7513333,20.9986667 12,21 Z" id="Shape"></path>
        </g>
    </g>
</svg>
