<?xml version="1.0" encoding="UTF-8"?>
<svg width="16px" height="8px" viewBox="0 0 16 8" version="1.1" xmlns="http://www.w3.org/2000/svg" xmlns:xlink="http://www.w3.org/1999/xlink">
    <!-- Generator: Sketch 53.2 (72643) - https://sketchapp.com -->
    <title>slim-arrow-left</title>
    <desc>Created with Sketch.</desc>
    <g id="Side-Navigation" stroke="none" stroke-width="1" fill="none" fill-rule="evenodd">
        <g id="Design-Web-Home-Copy-11" transform="translate(-324.000000, -72.000000)" fill="#696969">
            <g id="Group-2" transform="translate(243.000000, 67.000000)">
                <g id="slim-arrow-left" transform="translate(89.000000, 9.000000) rotate(-90.000000) translate(-89.000000, -9.000000) translate(85.000000, 1.000000)">
                    <path d="M6.90093049,14.0121212 C7.18117132,14.3261183 7.18117132,14.6270322 6.90093049,14.9148629 C6.78416347,15.045695 6.65571976,15.1111111 6.51559934,15.1111111 C6.37547893,15.1111111 6.24703521,15.045695 6.1302682,14.9148629 L0.315270936,8.43867244 C0.105090312,8.17700818 0,7.87609428 0,7.53593074 C0,7.1957672 0.105090312,6.89485329 0.315270936,6.63318903 L6.0952381,0.196248196 C6.21200511,0.0654160654 6.34628717,0 6.49808429,0 C6.64988141,0 6.78416347,0.0654160654 6.90093049,0.196248196 C7.0176975,0.327080327 7.07608101,0.470995671 7.07608101,0.627994228 C7.07608101,0.784992785 7.0176975,0.928908129 6.90093049,1.05974026 L1.33114395,7.3004329 C1.19102354,7.45743146 1.19102354,7.61443001 1.33114395,7.77142857 L6.90093049,14.0121212 Z" id="Path"></path>
                </g>
            </g>
        </g>
    </g>
</svg>