<?xml version="1.0" encoding="UTF-8"?>
<svg width="24px" height="24px" viewBox="0 0 24 24" version="1.1" xmlns="http://www.w3.org/2000/svg" xmlns:xlink="http://www.w3.org/1999/xlink">
    <!-- Generator: Sketch 53.2 (72643) - https://sketchapp.com -->
    <title>icon / search / arrow-back</title>
    <desc>Created with Sketch.</desc>
    <g id="icon-/-search-/-arrow-back" stroke="none" stroke-width="1" fill="none" fill-rule="evenodd">
        <path d="M8.46899758,13.0013811 L13.7086966,18.1070442 C14.1084192,18.4941298 14.1084192,19.1217196 13.7086966,19.5088053 L12.9849347,20.2096858 C12.585212,20.5967714 11.9371336,20.5967714 11.5374109,20.2096858 L3.29979199,12.2008805 C2.90006934,11.8137949 2.90006934,11.1862051 3.29979199,10.7991195 L11.5374109,2.79031422 C11.9371336,2.40322859 12.585212,2.40322859 12.9849347,2.79031422 L13.7086966,3.49119474 C14.1084192,3.87828037 14.1084192,4.50587017 13.7086966,4.8929558 L8.43886697,10 L19.9764461,10 C20.5417393,10 21,10.4715699 21,11.0189917 L21,12.0101864 C21,12.5576081 20.5417393,13.0013811 19.9764461,13.0013811 L8.46899758,13.0013811 Z" id="back" fill="#32363A"></path>
    </g>
</svg>